<svg width="29" height="29" viewBox="0 0 29 29" fill="none" xmlns="http://www.w3.org/2000/svg">
<path d="M26.4112 12.3005L21.8097 16.902C21.0619 17.6487 20.152 18.2129 19.1508 18.5507C18.1495 18.8885 17.0838 18.9909 16.0365 18.8498C14.9893 18.7088 13.9886 18.3281 13.1124 17.7374C12.2362 17.1467 11.508 16.362 10.9844 15.4441C10.919 15.3334 10.8763 15.2109 10.8588 15.0836C10.8412 14.9563 10.8492 14.8268 10.8821 14.7026C10.9151 14.5784 10.9725 14.462 11.0509 14.3602C11.1293 14.2584 11.2272 14.1732 11.3388 14.1096C11.4505 14.0459 11.5737 14.0052 11.7012 13.9896C11.8288 13.9741 11.9582 13.9841 12.0818 14.019C12.2055 14.054 12.321 14.1132 12.4215 14.1932C12.5221 14.2732 12.6057 14.3724 12.6676 14.485C13.0432 15.1444 13.5658 15.7083 14.1949 16.1327C14.824 16.5571 15.5425 16.8306 16.2946 16.9319C17.0467 17.0332 17.812 16.9597 18.5309 16.7169C19.2499 16.4741 19.9032 16.0687 20.4399 15.5322L25.0414 10.9307C25.9661 10.0062 26.4856 8.75224 26.4856 7.44471C26.4857 6.13719 25.9664 4.88319 25.0419 3.95857C24.1174 3.03395 22.8635 2.51445 21.556 2.51436C20.2485 2.51427 18.9944 3.03359 18.0698 3.95808L13.8509 8.17699C13.6682 8.35345 13.4235 8.4511 13.1695 8.44889C12.9155 8.44668 12.6725 8.3448 12.4929 8.16519C12.3133 7.98557 12.2114 7.7426 12.2092 7.4886C12.207 7.23459 12.3046 6.98988 12.4811 6.80718L16.7 2.58827C17.9879 1.30048 19.7347 0.577058 21.556 0.577148C22.4578 0.577193 23.3508 0.754864 24.1839 1.10002C25.0171 1.44517 25.7741 1.95104 26.4117 2.58875C27.0494 3.22647 27.5552 3.98353 27.9002 4.81672C28.2453 5.6499 28.4229 6.5429 28.4229 7.44471C28.4228 8.34653 28.2451 9.23951 27.9 10.0727C27.5548 10.9058 27.049 11.6628 26.4112 12.3005ZM15.149 20.8231L10.9301 25.042C10.4722 25.4997 9.92849 25.8628 9.33019 26.1104C8.73189 26.3581 8.09067 26.4855 7.44314 26.4853C6.7956 26.4852 6.15444 26.3575 5.55626 26.1095C4.95808 25.8616 4.4146 25.4982 3.95683 25.0403C3.03234 24.1153 2.51315 22.861 2.51346 21.5533C2.51378 20.2455 3.03359 18.9914 3.95853 18.067L8.56009 13.4654C9.0972 12.9297 9.75054 12.5251 10.4694 12.2828C11.1882 12.0405 11.9532 11.9672 12.705 12.0685C13.4568 12.1698 14.1751 12.443 14.8042 12.8669C15.4333 13.2907 15.9562 13.8539 16.3324 14.5126C16.3942 14.6253 16.4779 14.7245 16.5784 14.8045C16.679 14.8845 16.7945 14.9437 16.9181 14.9786C17.0418 15.0135 17.1712 15.0235 17.2987 15.008C17.4263 14.9924 17.5495 14.9517 17.6611 14.8881C17.7728 14.8244 17.8707 14.7392 17.9491 14.6374C18.0275 14.5356 18.0848 14.4192 18.1178 14.295C18.1508 14.1708 18.1588 14.0413 18.1412 13.914C18.1236 13.7867 18.0809 13.6642 18.0156 13.5536C17.4925 12.635 16.7646 11.8496 15.8884 11.2585C15.0121 10.6673 14.0113 10.2864 12.9638 10.1453C11.9162 10.0042 10.8503 10.1068 9.84889 10.4451C8.8475 10.7834 7.93768 11.3482 7.19028 12.0956L2.58872 16.6971C1.30048 17.9849 0.576574 19.7317 0.576256 21.5533C0.575938 23.3748 1.29923 25.1218 2.58702 26.4101C3.87481 27.6983 5.62161 28.4222 7.44314 28.4225C9.26466 28.4229 11.0117 27.6996 12.3 26.4118L16.5189 22.1929C16.6953 22.0102 16.793 21.7654 16.7908 21.5114C16.7886 21.2574 16.6867 21.0145 16.5071 20.8349C16.3274 20.6552 16.0845 20.5534 15.8305 20.5511C15.5765 20.5489 15.3318 20.6466 15.149 20.8231Z" fill="#BDBDBD"/>
</svg>
