<svg width="69" height="71" viewBox="0 0 69 71" fill="none" xmlns="http://www.w3.org/2000/svg">
<path fill-rule="evenodd" clip-rule="evenodd" d="M50.7088 21.0335V21.0335C49.6365 21.0335 48.6647 20.3975 48.2076 19.4035C47.3825 17.6048 46.3331 15.3062 45.7121 14.0548C44.795 12.194 43.3086 11.1112 41.2501 11.0965C41.2156 11.0935 27.7836 11.0935 27.7491 11.0965C25.6906 11.1112 24.2071 12.194 23.2871 14.0548C22.669 15.3062 21.6196 17.6048 20.7945 19.4035C20.3373 20.3975 19.3627 21.0335 18.2932 21.0335V21.0335C12.5547 21.0335 7.90584 25.8171 7.90584 31.719V49.2797C7.90584 55.1786 12.5547 59.9652 18.2932 59.9652H50.7088C56.4445 59.9652 61.0933 55.1786 61.0933 49.2797V31.719C61.0933 25.8171 56.4445 21.0335 50.7088 21.0335Z" stroke="#200E32" stroke-width="2" stroke-linecap="round" stroke-linejoin="round"/>
<path fill-rule="evenodd" clip-rule="evenodd" d="M25.3615 39.4481C25.3586 44.634 29.4728 48.8763 34.504 48.8733C39.5266 48.8674 43.6293 44.6429 43.6379 39.4688C43.6465 34.274 39.5468 30.0406 34.5098 30.0347C29.444 30.0288 25.3213 34.3331 25.3615 39.4481Z" stroke="#200E32" stroke-width="2" stroke-linecap="round" stroke-linejoin="round"/>
<path d="M48.5947 32.5271C48.3169 32.4978 48.0426 32.4232 47.7353 32.296C47.3935 32.1397 47.0976 31.941 46.8116 31.6419C46.2976 31.0794 46 30.3437 46 29.5848C46 29.1816 46.0801 28.7821 46.2365 28.4201C46.3932 28.0534 46.579 27.7441 46.9148 27.4076C47.1701 27.1788 47.4318 26.9946 47.7894 26.8325C48.85 26.4 50.1116 26.6584 50.9 27.4693C51.1363 27.7089 51.3352 27.998 51.4457 28.2418L51.5111 28.4146C51.6699 28.7821 51.75 29.1816 51.75 29.5848C51.75 30.3591 51.4562 31.0752 50.9109 31.6712C50.4396 32.1595 49.8206 32.4597 49.1602 32.5272L48.875 32.5417L48.5947 32.5271Z" fill="#200E32"/>
</svg>
