<svg width="29" height="29" viewBox="0 0 29 29" fill="none" xmlns="http://www.w3.org/2000/svg">
<g id="cash">
<g id="Group">
<path id="Vector" d="M5.87974 22.7589C5.87974 22.1332 5.75651 21.5137 5.51708 20.9356C5.27765 20.3576 4.92671 19.8324 4.48429 19.39C4.04188 18.9475 3.51666 18.5966 2.93862 18.3572C2.36058 18.1177 1.74104 17.9945 1.11538 17.9945M25.5005 17.9945C24.2369 17.9945 23.0251 18.4965 22.1316 19.39C21.2381 20.2834 20.7361 21.4953 20.7361 22.7589L25.5005 17.9945ZM20.7361 8.61914C20.7361 9.88273 21.2381 11.0946 22.1316 11.9881C23.0251 12.8815 24.2369 13.3835 25.5005 13.3835L20.7361 8.61914ZM1.11538 13.3835C2.37897 13.3835 3.5908 12.8815 4.48429 11.9881C5.37779 11.0946 5.87974 9.88273 5.87974 8.61914L1.11538 13.3835Z" stroke="#E0A800" stroke-width="1.11538" stroke-miterlimit="10" stroke-linecap="round" stroke-linejoin="round"/>
</g>
<g id="Group_2">
<path id="Vector_2" d="M13.3076 11.3178V20.0602M1.11538 8.61914H25.5005V22.7589H1.11538V8.61914ZM15.1285 13.8687C15.1285 13.5087 15.0218 13.1568 14.8218 12.8574C14.6218 12.5581 14.3375 12.3248 14.0049 12.187C13.6724 12.0492 13.3064 12.0131 12.9533 12.0833C12.6002 12.1535 12.2758 12.3268 12.0213 12.5813C11.7667 12.8359 11.5932 13.1602 11.5229 13.5132C11.4526 13.8663 11.4886 14.2323 11.6263 14.5649C11.764 14.8975 11.9972 15.1819 12.2965 15.382C12.5958 15.582 12.9476 15.6889 13.3076 15.689L15.1285 13.8687ZM11.4873 17.5093C11.4873 17.8693 11.5941 18.2213 11.7941 18.5206C11.9941 18.82 12.2784 19.0533 12.611 19.1911C12.9437 19.3288 13.3097 19.3649 13.6628 19.2946C14.0159 19.2244 14.3402 19.051 14.5948 18.7965C14.8494 18.5419 15.0227 18.2175 15.093 17.8644C15.1632 17.5113 15.1272 17.1453 14.9894 16.8127C14.8516 16.4801 14.6183 16.1958 14.319 15.9958C14.0196 15.7958 13.6677 15.689 13.3076 15.689L11.4873 17.5093Z" stroke="#E0A800" stroke-width="1.11538" stroke-miterlimit="10" stroke-linecap="round" stroke-linejoin="round"/>
</g>
<path id="Vector_3" d="M25.5022 20.3763H27.8846V6.23828H3.49952V8.62074" stroke="#E0A800" stroke-width="1.11538" stroke-miterlimit="10" stroke-linecap="round" stroke-linejoin="round"/>
<g id="Group_3">
<path id="Vector_4" d="M5.87974 22.7589C5.87974 22.1332 5.75651 21.5137 5.51708 20.9356C5.27765 20.3576 4.92671 19.8324 4.48429 19.39C4.04188 18.9475 3.51666 18.5966 2.93862 18.3572C2.36058 18.1177 1.74104 17.9945 1.11538 17.9945M25.5005 17.9945C24.2369 17.9945 23.0251 18.4965 22.1316 19.39C21.2381 20.2834 20.7361 21.4953 20.7361 22.7589L25.5005 17.9945ZM20.7361 8.61914C20.7361 9.88273 21.2381 11.0946 22.1316 11.9881C23.0251 12.8815 24.2369 13.3835 25.5005 13.3835L20.7361 8.61914ZM1.11538 13.3835C2.37897 13.3835 3.5908 12.8815 4.48429 11.9881C5.37779 11.0946 5.87974 9.88273 5.87974 8.61914L1.11538 13.3835Z" stroke="#E0A800" stroke-width="1.11538" stroke-miterlimit="10" stroke-linecap="round" stroke-linejoin="round"/>
</g>
<g id="Group_4">
<path id="Vector_5" d="M13.3076 11.3178V20.0602M1.11538 8.61914H25.5005V22.7589H1.11538V8.61914ZM15.1285 13.8687C15.1285 13.5087 15.0218 13.1568 14.8218 12.8574C14.6218 12.5581 14.3375 12.3248 14.0049 12.187C13.6724 12.0492 13.3064 12.0131 12.9533 12.0833C12.6002 12.1535 12.2758 12.3268 12.0213 12.5813C11.7667 12.8359 11.5932 13.1602 11.5229 13.5132C11.4526 13.8663 11.4886 14.2323 11.6263 14.5649C11.764 14.8975 11.9972 15.1819 12.2965 15.382C12.5958 15.582 12.9476 15.6889 13.3076 15.689L15.1285 13.8687ZM11.4873 17.5093C11.4873 17.8693 11.5941 18.2213 11.7941 18.5206C11.9941 18.82 12.2784 19.0533 12.611 19.1911C12.9437 19.3288 13.3097 19.3649 13.6628 19.2946C14.0159 19.2244 14.3402 19.051 14.5948 18.7965C14.8494 18.5419 15.0227 18.2175 15.093 17.8644C15.1632 17.5113 15.1272 17.1453 14.9894 16.8127C14.8516 16.4801 14.6183 16.1958 14.319 15.9958C14.0196 15.7958 13.6677 15.689 13.3076 15.689L11.4873 17.5093Z" stroke="#E0A800" stroke-width="1.11538" stroke-miterlimit="10" stroke-linecap="round" stroke-linejoin="round"/>
</g>
<path id="Vector_6" d="M25.5022 20.3763H27.8846V6.23828H3.49952V8.62074" stroke="#E0A800" stroke-width="1.11538" stroke-miterlimit="10" stroke-linecap="round" stroke-linejoin="round"/>
</g>
</svg>
