<svg width="16" height="16" viewBox="0 0 16 16" fill="none" xmlns="http://www.w3.org/2000/svg">
<path d="M5.00002 7.25C4.85169 7.25 4.70668 7.29399 4.58334 7.3764C4.46001 7.45881 4.36388 7.57594 4.30711 7.71299C4.25035 7.85003 4.23549 8.00083 4.26443 8.14632C4.29337 8.2918 4.3648 8.42544 4.46969 8.53033C4.57458 8.63522 4.70822 8.70665 4.8537 8.73559C4.99919 8.76453 5.14999 8.74968 5.28703 8.69291C5.42408 8.63614 5.54121 8.54002 5.62362 8.41668C5.70603 8.29334 5.75002 8.14834 5.75002 8C5.75002 7.80109 5.671 7.61032 5.53035 7.46967C5.3897 7.32902 5.19893 7.25 5.00002 7.25ZM8.00002 7.25C7.85169 7.25 7.70668 7.29399 7.58334 7.3764C7.46001 7.45881 7.36388 7.57594 7.30711 7.71299C7.25035 7.85003 7.23549 8.00083 7.26443 8.14632C7.29337 8.2918 7.3648 8.42544 7.46969 8.53033C7.57458 8.63522 7.70822 8.70665 7.8537 8.73559C7.99919 8.76453 8.14999 8.74968 8.28703 8.69291C8.42408 8.63614 8.54121 8.54002 8.62362 8.41668C8.70604 8.29334 8.75002 8.14834 8.75002 8C8.75002 7.80109 8.671 7.61032 8.53035 7.46967C8.3897 7.32902 8.19893 7.25 8.00002 7.25ZM11 7.25C10.8517 7.25 10.7067 7.29399 10.5833 7.3764C10.46 7.45881 10.3639 7.57594 10.3071 7.71299C10.2503 7.85003 10.2355 8.00083 10.2644 8.14632C10.2934 8.2918 10.3648 8.42544 10.4697 8.53033C10.5746 8.63522 10.7082 8.70665 10.8537 8.73559C10.9992 8.76453 11.15 8.74968 11.287 8.69291C11.4241 8.63614 11.5412 8.54002 11.6236 8.41668C11.706 8.29334 11.75 8.14834 11.75 8C11.75 7.80109 11.671 7.61032 11.5304 7.46967C11.3897 7.32902 11.1989 7.25 11 7.25ZM8.00002 0.5C7.01511 0.5 6.03984 0.693993 5.1299 1.0709C4.21995 1.44781 3.39316 2.00026 2.69672 2.6967C1.2902 4.10322 0.500022 6.01088 0.500022 8C0.493465 9.73185 1.09312 11.4114 2.19502 12.7475L0.695022 14.2475C0.590953 14.353 0.520456 14.4869 0.492426 14.6324C0.464395 14.7779 0.480087 14.9284 0.537522 15.065C0.599815 15.1999 0.7008 15.3133 0.827657 15.3908C0.954514 15.4682 1.10152 15.5063 1.25002 15.5H8.00002C9.98915 15.5 11.8968 14.7098 13.3033 13.3033C14.7098 11.8968 15.5 9.98912 15.5 8C15.5 6.01088 14.7098 4.10322 13.3033 2.6967C11.8968 1.29018 9.98915 0.5 8.00002 0.5ZM8.00002 14H3.05752L3.75502 13.3025C3.82589 13.233 3.88227 13.1502 3.92089 13.0588C3.95951 12.9674 3.97961 12.8692 3.98002 12.77C3.9772 12.5722 3.89633 12.3835 3.75502 12.245C2.77296 11.264 2.1614 9.9729 2.02454 8.59159C1.88768 7.21029 2.23398 5.82425 3.00444 4.66964C3.77491 3.51503 4.92186 2.66327 6.24991 2.25948C7.57795 1.85569 9.00492 1.92485 10.2877 2.45519C11.5705 2.98552 12.6297 3.94421 13.2849 5.16792C13.94 6.39163 14.1507 7.80466 13.8809 9.16625C13.6111 10.5279 12.8775 11.7538 11.8052 12.6352C10.7328 13.5166 9.38809 13.9989 8.00002 14Z" fill="#E0A800"/>
</svg>
