<svg width="29" height="29" viewBox="0 0 29 29" fill="none" xmlns="http://www.w3.org/2000/svg">
<g id="Delete">
<path id="Vector" d="M10 3V6H19V3C19 2.73478 18.8946 2.48043 18.7071 2.29289C18.5196 2.10536 18.2652 2 18 2H11C10.7348 2 10.4804 2.10536 10.2929 2.29289C10.1054 2.48043 10 2.73478 10 3Z" fill="#E0A800"/>
<path id="Vector_2" d="M4 5V6H25V5C25 4.73478 24.8946 4.48043 24.7071 4.29289C24.5196 4.10536 24.2652 4 24 4H5C4.73478 4 4.48043 4.10536 4.29289 4.29289C4.10536 4.48043 4 4.73478 4 5ZM6 8L7.812 25.209C7.86365 25.7005 8.09547 26.1555 8.46275 26.4863C8.83003 26.817 9.30676 27 9.801 27H19.2C19.6942 27 20.171 26.817 20.5383 26.4863C20.9055 26.1555 21.1374 25.7005 21.189 25.209L23 8H6ZM10.577 24.997C10.446 25.0072 10.3144 24.9916 10.1895 24.9508C10.0646 24.9101 9.94896 24.8452 9.8492 24.7597C9.74944 24.6743 9.66752 24.57 9.60811 24.4528C9.54871 24.3357 9.51299 24.208 9.503 24.077L8.503 11.077C8.48259 10.8126 8.56805 10.5509 8.74058 10.3495C8.91311 10.1481 9.15858 10.0234 9.423 10.003C9.55422 9.99139 9.68644 10.0061 9.81189 10.0463C9.93735 10.0865 10.0535 10.1514 10.1536 10.2371C10.2536 10.3228 10.3355 10.4276 10.3945 10.5454C10.4535 10.6632 10.4883 10.7916 10.497 10.923L11.497 23.923C11.5174 24.1874 11.432 24.4491 11.2594 24.6505C11.0869 24.8519 10.8414 24.9766 10.577 24.997ZM15.5 24C15.5 24.2652 15.3946 24.5196 15.2071 24.7071C15.0196 24.8946 14.7652 25 14.5 25C14.2348 25 13.9804 24.8946 13.7929 24.7071C13.6054 24.5196 13.5 24.2652 13.5 24V11C13.5 10.7348 13.6054 10.4804 13.7929 10.2929C13.9804 10.1054 14.2348 10 14.5 10C14.7652 10 15.0196 10.1054 15.2071 10.2929C15.3946 10.4804 15.5 10.7348 15.5 11V24ZM19.497 24.077C19.4869 24.2079 19.4511 24.3356 19.3916 24.4527C19.3322 24.5698 19.2503 24.674 19.1505 24.7594C19.0508 24.8449 18.9352 24.9098 18.8104 24.9506C18.6856 24.9913 18.5539 25.0071 18.423 24.997C18.2921 24.9869 18.1644 24.9511 18.0473 24.8916C17.9302 24.8322 17.826 24.7503 17.7406 24.6505C17.6551 24.5508 17.5902 24.4352 17.5494 24.3104C17.5087 24.1856 17.4929 24.0539 17.503 23.923L18.503 10.923C18.5111 10.7914 18.5456 10.6627 18.6044 10.5446C18.6632 10.4266 18.7452 10.3215 18.8453 10.2357C18.9455 10.1499 19.0619 10.0851 19.1875 10.0451C19.3132 10.0052 19.4457 9.99083 19.577 10.003C19.8414 10.0234 20.0869 10.1481 20.2594 10.3495C20.432 10.5509 20.5174 10.8126 20.497 11.077L19.497 24.077Z" fill="#E0A800"/>
</g>
</svg>
