<svg width="109" height="140" viewBox="0 0 109 140" fill="none" xmlns="http://www.w3.org/2000/svg">
<circle cx="54.1602" cy="54.1602" r="54.1602" fill="#F1F1F1"/>
<rect x="32.9131" y="53.0554" width="53.024" height="74.2335" rx="5.3024" transform="rotate(2.5 32.9131 53.0554)" fill="#EEEEEE" stroke="#999999" stroke-width="1.51497"/>
<rect x="1.3906" y="48.6135" width="56.0539" height="77.2635" rx="6.81737" transform="rotate(-7.5 1.3906 48.6135)" fill="#FAFAFA" stroke="#999999" stroke-width="1.51497"/>
<path d="M3.03145 55.2737C2.59461 51.9555 4.93037 48.9115 8.24852 48.4747L50.3048 42.9378C53.6229 42.501 56.6669 44.8368 57.1038 48.1549L58.5869 59.42L4.51453 66.5387L3.03145 55.2737Z" fill="#EEEEEE"/>
<rect x="68.0723" y="44.4199" width="2.27245" height="7.57485" rx="1.13623" transform="rotate(82.5 68.0723 44.4199)" fill="#999999"/>
<rect x="47.3197" y="31.8711" width="2.27245" height="7.57485" rx="1.13623" transform="rotate(-7.5 47.3197 31.8711)" fill="#999999"/>
<rect x="60.6345" y="33.9395" width="2.27245" height="7.57485" rx="1.13623" transform="rotate(37.5 60.6345 33.9395)" fill="#999999"/>
<rect x="10.1671" y="68.8516" width="43.9341" height="3.02994" rx="1.51497" transform="rotate(-7.5 10.1671 68.8516)" fill="#DCDCDC"/>
<rect x="12.1445" y="83.873" width="43.9341" height="3.02994" rx="1.51497" transform="rotate(-7.5 12.1445 83.873)" fill="#DCDCDC"/>
<rect x="14.1219" y="98.8926" width="43.9341" height="3.02994" rx="1.51497" transform="rotate(-7.5 14.1219 98.8926)" fill="#DCDCDC"/>
<rect x="10.958" y="74.8594" width="15.9072" height="3.02994" rx="1.51497" transform="rotate(-7.5 10.958 74.8594)" fill="#EEEEEE"/>
<rect x="12.9354" y="89.8809" width="15.9072" height="3.02994" rx="1.51497" transform="rotate(-7.5 12.9354 89.8809)" fill="#EEEEEE"/>
<rect x="14.913" y="104.9" width="15.9072" height="3.02994" rx="1.51497" transform="rotate(-7.5 14.913 104.9)" fill="#EEEEEE"/>
</svg>
