<svg width="136" height="128" viewBox="0 0 136 128" fill="none" xmlns="http://www.w3.org/2000/svg">
<g id="Group 579">
<circle id="Ellipse 106" cx="79.169" cy="56.7548" r="56.1317" fill="#F1F1F1"/>
<path id="Rectangle 36" d="M69.8393 35.3916L70.1219 35.5548L70.2851 35.2722L71.8352 32.5872C73.8629 29.0752 78.3537 27.8719 81.8657 29.8996C85.3777 31.9272 86.581 36.418 84.5534 39.93L83.0032 42.615L82.84 42.8976L83.1227 43.0608C95.1415 49.9999 99.2595 65.3684 92.3204 77.3873L76.9821 103.954C75.0896 107.232 76.2127 111.423 79.4906 113.316C79.9588 113.586 80.1193 114.185 79.8489 114.653L75.1169 122.849C74.8465 123.318 74.2478 123.478 73.7795 123.208L1.99274 81.7616C1.52447 81.4912 1.36403 80.8925 1.63439 80.4242L6.36642 72.2281C6.63678 71.7598 7.23555 71.5993 7.70382 71.8697L8.55169 72.3592C11.8296 74.2517 16.021 73.1286 17.9135 69.8507L31.9464 45.545C39.6065 32.2774 56.5717 27.7316 69.8393 35.3916Z" fill="#DDDDDD" stroke="black" stroke-width="0.652695"/>
<g id="Ellipse 102">
<mask id="path-3-inside-1_301_1021" fill="white">
<path d="M42.6789 107.888C41.2941 110.286 40.9188 113.137 41.6357 115.812C42.3525 118.487 44.1028 120.768 46.5014 122.153C48.9 123.538 51.7505 123.913 54.4258 123.197C57.1011 122.48 59.3821 120.729 60.7669 118.331L51.7229 113.109L42.6789 107.888Z"/>
</mask>
<path d="M42.6789 107.888C41.2941 110.286 40.9188 113.137 41.6357 115.812C42.3525 118.487 44.1028 120.768 46.5014 122.153C48.9 123.538 51.7505 123.913 54.4258 123.197C57.1011 122.48 59.3821 120.729 60.7669 118.331L51.7229 113.109L42.6789 107.888Z" fill="#CCCCCC" stroke="black" stroke-width="1.30539" mask="url(#path-3-inside-1_301_1021)"/>
</g>
<circle id="Ellipse 103" cx="40.3337" cy="15.9613" r="4.24251" fill="#CCCCCC"/>
<circle id="Ellipse 104" cx="108.867" cy="68.8285" r="3.91617" fill="#CCCCCC" stroke="black" stroke-width="0.652695"/>
<circle id="Ellipse 105" cx="12.2677" cy="58.387" r="3.91617" stroke="black" stroke-width="0.652695"/>
</g>
</svg>
