<svg width="12" height="12" viewBox="0 0 12 12" fill="none" xmlns="http://www.w3.org/2000/svg">
<g clip-path="url(#clip0_17_44)">
<path d="M9.93478 5.25C8.79759 5.25117 7.87322 6.18281 7.87439 7.32703C7.87486 7.95211 8.18634 8.66461 8.80017 9.44508C9.23822 10.0022 9.67228 10.3894 9.69056 10.4055C9.83299 10.532 10.0474 10.5311 10.1888 10.4051C10.2071 10.3889 10.6405 10.0008 11.0776 9.44297C11.5465 8.8443 11.9994 8.08064 11.9994 7.32305C11.9984 6.18103 11.081 5.25 9.93478 5.25ZM9.939 9.60563C9.42665 9.08531 8.62509 8.10609 8.62439 7.32633C8.62369 6.59555 9.21197 6.0007 9.93548 6C10.663 6 11.2484 6.59243 11.2494 7.32375C11.2501 8.10352 10.4502 9.08461 9.939 9.60563Z" fill="#E0A800"/>
<path d="M9.93707 6.75C9.44066 6.75 9.18358 7.35471 9.53957 7.7107C9.82187 7.99237 10.3031 7.899 10.4571 7.52742C10.6097 7.15952 10.3377 6.75 9.93707 6.75Z" fill="#E0A800"/>
<path d="M1.81464 5.15531C1.95674 5.28145 2.17061 5.28166 2.31292 5.15531C2.3312 5.13914 2.76503 4.75148 3.20261 4.19414C3.8155 3.41297 4.12628 2.70023 4.12628 2.07492C4.12628 0.930937 3.20097 0 2.06378 0C0.926594 0 0.00128174 0.930937 0.00128174 2.07492C0.00128174 2.70023 0.312063 3.41297 0.924954 4.19414C1.36253 4.75148 1.79636 5.13914 1.81464 5.15531ZM2.06378 0.75C2.78753 0.75 3.37628 1.34437 3.37628 2.07492C3.37628 2.85492 2.57519 3.83531 2.06355 4.35586C1.55167 3.83625 0.751282 2.85727 0.751282 2.07492C0.751282 1.34437 1.34003 0.75 2.06378 0.75Z" fill="#E0A800"/>
<path d="M2.06311 2.625C2.37377 2.625 2.62561 2.37316 2.62561 2.0625C2.62561 1.75184 2.37377 1.5 2.06311 1.5C1.75245 1.5 1.50061 1.75184 1.50061 2.0625C1.50061 2.37316 1.75245 2.625 2.06311 2.625Z" fill="#E0A800"/>
<path d="M10.5032 11.437C10.5036 11.9496 9.86653 12.1971 9.52186 11.8125H1.68811C0.757642 11.8125 0.000610352 11.0554 0.000610352 10.125C0.000610352 9.1945 0.757642 8.43747 1.68811 8.43747H5.44983C5.9603 8.43747 6.37561 8.02216 6.37561 7.5117C6.37561 7.00123 5.9603 6.58592 5.44983 6.58592H2.48241C2.13483 6.96949 1.50101 6.72485 1.50061 6.21138C1.49981 5.69728 2.13288 5.45246 2.48241 5.83592H5.44983C6.37397 5.83592 7.12561 6.58756 7.12561 7.5117C7.12561 8.43583 6.37397 9.18747 5.44983 9.18747H1.68811C1.17108 9.18747 0.75061 9.60794 0.75061 10.125C0.75061 10.642 1.17108 11.0625 1.68811 11.0625H9.52163C9.87049 10.6775 10.5024 10.9263 10.5032 11.437Z" fill="#E0A800"/>
</g>
<defs>
<clipPath id="clip0_17_44">
<rect width="12" height="12" fill="white"/>
</clipPath>
</defs>
</svg>
