<svg width="17" height="22" viewBox="0 0 17 22" fill="none" xmlns="http://www.w3.org/2000/svg">
<g id="PayPal">
<path id="Fill 7" fill-rule="evenodd" clip-rule="evenodd" d="M4.87418 20.8756L5.21966 18.6074L4.45005 18.5889H0.775024L3.32904 1.85101C3.337 1.80032 3.36272 1.75327 3.40028 1.7198C3.43803 1.68633 3.48615 1.66797 3.53648 1.66797H9.73314C11.7905 1.66797 13.2102 2.11036 13.9513 2.98365C14.2988 3.39334 14.5201 3.82157 14.6273 4.29265C14.7396 4.78706 14.7414 5.37767 14.6319 6.09815L14.6239 6.15056V6.61226L14.9714 6.81577C15.264 6.97623 15.4966 7.15984 15.675 7.37004C15.9722 7.72043 16.1644 8.16569 16.2457 8.69338C16.3297 9.23618 16.3019 9.88226 16.1644 10.6136C16.0059 11.4548 15.7496 12.1875 15.4033 12.7869C15.0851 13.3393 14.6794 13.7976 14.1978 14.1525C13.7379 14.4899 13.1917 14.746 12.574 14.9099C11.9754 15.071 11.2929 15.1523 10.5444 15.1523H10.0622C9.71741 15.1523 9.38248 15.2806 9.11953 15.5107C8.85583 15.7456 8.68152 16.0665 8.62804 16.4175L8.59159 16.6217L7.98112 20.6197L7.95355 20.7664C7.94614 20.8128 7.93356 20.836 7.91506 20.8517C7.89859 20.866 7.8749 20.8756 7.85177 20.8756H4.87418Z" fill="#28356A"/>
<path id="Fill 8" fill-rule="evenodd" clip-rule="evenodd" d="M15.301 6.2041C15.2827 6.32632 15.2614 6.45121 15.2377 6.57955C14.4205 10.9162 11.6247 12.4144 8.05399 12.4144H6.2359C5.79919 12.4144 5.43113 12.742 5.36322 13.1872L4.16874 21.0184C4.12452 21.3109 4.3425 21.5742 4.62784 21.5742H7.85247C8.23422 21.5742 8.55861 21.2875 8.61875 20.8983L8.65039 20.729L9.25753 16.7468L9.29658 16.5284C9.35598 16.1378 9.68111 15.8509 10.0629 15.8509H10.5451C13.6692 15.8509 16.115 14.54 16.8298 10.7462C17.1283 9.16138 16.9738 7.83805 16.1837 6.90737C15.9446 6.62679 15.6479 6.39383 15.301 6.2041Z" fill="#298FC2"/>
<path id="Fill 9" fill-rule="evenodd" clip-rule="evenodd" d="M14.4456 5.85198C14.3207 5.8143 14.1919 5.78025 14.0598 5.74946C13.9269 5.71943 13.7909 5.69285 13.6508 5.66951C13.1606 5.58765 12.6234 5.54883 12.0481 5.54883H7.19118C7.07146 5.54883 6.95784 5.57675 6.85625 5.62725C6.63216 5.73856 6.4658 5.95774 6.42546 6.22608L5.39216 12.9902L5.36255 13.1874C5.43046 12.7422 5.79852 12.4145 6.23523 12.4145H8.05332C11.624 12.4145 14.4199 10.9156 15.237 6.57973C15.2614 6.45139 15.282 6.3265 15.3003 6.20428C15.0936 6.09086 14.8697 5.99389 14.6286 5.91127C14.569 5.8908 14.5076 5.8711 14.4456 5.85198Z" fill="#22284F"/>
<path id="Fill 11" fill-rule="evenodd" clip-rule="evenodd" d="M6.42583 6.22575C6.46617 5.95742 6.63253 5.73823 6.85662 5.62768C6.95895 5.577 7.07183 5.54907 7.19156 5.54907H12.0485C12.6238 5.54907 13.161 5.58809 13.6512 5.66995C13.7913 5.69309 13.9273 5.71987 14.0601 5.7499C14.1922 5.7805 14.321 5.81473 14.4459 5.85222C14.5079 5.87135 14.5694 5.89124 14.6295 5.91094C14.8706 5.99356 15.0947 6.0913 15.3014 6.20395C15.5446 4.60137 15.2994 3.51023 14.4611 2.52217C13.5368 1.43428 11.8688 0.96875 9.73428 0.96875H3.53743C3.10146 0.96875 2.72952 1.29638 2.66216 1.7424L0.0811294 18.6524C0.0302415 18.9869 0.27987 19.2887 0.606292 19.2887H4.43195L6.42583 6.22575Z" fill="#28356A"/>
</g>
</svg>
