<svg id="svg" version="1.1" xmlns="http://www.w3.org/2000/svg" xmlns:xlink="http://www.w3.org/1999/xlink" width="400" height="110.93860268172195" viewBox="0, 0, 400,110.93860268172195"><g id="svgg"><path id="path0" d="M30.764 9.311 C 30.714 9.391,30.222 9.507,29.670 9.570 C 29.118 9.632,28.667 9.754,28.667 9.842 C 28.667 9.929,28.479 10.000,28.250 10.000 C 28.021 10.000,27.833 10.075,27.833 10.167 C 27.833 10.258,27.627 10.334,27.375 10.334 C 27.123 10.335,26.702 10.447,26.439 10.584 C 26.177 10.721,25.858 10.833,25.731 10.833 C 25.604 10.833,25.500 10.908,25.500 11.000 C 25.500 11.092,25.387 11.167,25.250 11.167 C 25.113 11.167,25.000 11.234,25.000 11.315 C 25.000 11.397,24.794 11.514,24.542 11.575 C 23.898 11.731,22.167 12.557,22.167 12.708 C 22.167 12.777,22.086 12.833,21.988 12.833 C 21.890 12.833,21.705 12.927,21.577 13.042 C 21.077 13.490,20.843 13.667,20.750 13.667 C 20.696 13.667,20.450 13.854,20.203 14.083 C 19.956 14.313,19.694 14.500,19.621 14.500 C 19.548 14.500,19.283 14.706,19.032 14.958 C 18.780 15.210,18.364 15.567,18.108 15.750 C 17.728 16.021,15.959 17.725,15.046 18.699 C 14.934 18.819,14.756 19.001,14.650 19.103 C 13.952 19.779,13.167 20.645,13.167 20.738 C 13.167 20.799,12.979 21.036,12.750 21.265 C 12.521 21.494,12.333 21.757,12.333 21.848 C 12.333 21.940,12.146 22.203,11.917 22.432 C 11.688 22.661,11.500 22.958,11.500 23.091 C 11.500 23.224,11.437 23.333,11.360 23.333 C 11.282 23.333,11.078 23.596,10.905 23.917 C 10.732 24.238,10.533 24.500,10.462 24.500 C 10.391 24.500,10.333 24.613,10.333 24.750 C 10.333 24.887,10.275 25.000,10.203 25.000 C 10.132 25.000,9.928 25.375,9.750 25.833 C 9.572 26.292,9.386 26.667,9.337 26.667 C 9.288 26.667,9.144 26.910,9.017 27.208 C 8.890 27.506,8.601 28.162,8.374 28.667 C 8.147 29.171,7.922 29.866,7.875 30.212 C 7.827 30.558,7.723 30.882,7.644 30.931 C 7.565 30.980,7.500 31.198,7.500 31.417 C 7.500 31.635,7.435 31.854,7.355 31.903 C 7.276 31.952,7.160 32.442,7.098 32.991 C 7.035 33.540,6.913 34.034,6.826 34.088 C 6.613 34.220,6.613 43.280,6.826 43.412 C 6.913 43.466,7.035 43.960,7.098 44.509 C 7.160 45.058,7.276 45.548,7.355 45.597 C 7.435 45.646,7.500 45.944,7.500 46.260 C 7.500 46.575,7.565 46.833,7.643 46.833 C 7.722 46.833,7.831 47.263,7.885 47.789 C 7.940 48.315,8.063 48.771,8.159 48.803 C 8.255 48.835,8.333 49.036,8.333 49.250 C 8.333 49.464,8.390 49.664,8.458 49.694 C 8.527 49.725,8.724 50.163,8.895 50.667 C 9.067 51.171,9.254 51.621,9.312 51.667 C 9.370 51.712,9.557 52.163,9.729 52.667 C 9.900 53.171,10.091 53.621,10.152 53.667 C 10.214 53.712,10.485 54.200,10.755 54.750 C 11.026 55.300,11.285 55.788,11.332 55.833 C 11.378 55.879,11.566 56.217,11.750 56.583 C 11.933 56.950,12.176 57.349,12.291 57.470 C 12.406 57.591,12.500 57.798,12.500 57.929 C 12.500 58.060,12.575 58.167,12.667 58.167 C 12.758 58.167,12.833 58.273,12.833 58.403 C 12.833 58.533,12.890 58.664,12.958 58.694 C 13.027 58.725,13.291 59.069,13.544 59.458 C 13.797 59.848,14.079 60.167,14.169 60.167 C 14.259 60.167,14.333 60.276,14.333 60.409 C 14.333 60.542,14.521 60.839,14.750 61.068 C 14.979 61.297,15.167 61.560,15.167 61.653 C 15.167 62.593,16.402 62.595,16.470 61.655 C 16.499 61.252,16.583 60.847,16.656 60.753 C 16.730 60.660,16.840 60.308,16.900 59.970 C 16.961 59.633,17.064 59.333,17.130 59.304 C 17.344 59.208,18.167 57.512,18.167 57.168 C 18.167 56.984,18.232 56.833,18.313 56.833 C 18.393 56.833,18.502 56.627,18.555 56.375 C 18.723 55.580,19.963 54.347,20.213 54.726 C 20.949 55.843,21.642 56.583,22.664 57.343 L 23.833 58.212 23.833 59.414 C 23.833 61.063,24.141 61.277,27.572 62.014 C 30.578 62.659,31.368 62.436,31.932 60.782 C 32.145 60.154,32.274 60.000,32.581 60.000 C 34.580 60.000,38.025 58.718,39.563 57.402 C 39.928 57.089,40.344 56.831,40.488 56.828 C 40.824 56.821,41.333 56.436,41.333 56.190 C 41.333 56.085,41.392 56.000,41.465 56.000 C 41.661 56.000,43.000 53.906,43.000 53.599 C 43.000 53.453,43.075 53.333,43.167 53.333 C 43.258 53.333,43.333 53.146,43.333 52.917 C 43.333 52.688,43.406 52.500,43.494 52.500 C 43.583 52.500,43.705 52.123,43.766 51.663 C 43.827 51.203,43.942 50.786,44.022 50.736 C 44.102 50.687,44.167 50.395,44.167 50.087 C 44.167 49.780,44.241 49.503,44.332 49.472 C 44.423 49.442,44.547 48.723,44.607 47.875 C 44.667 47.027,44.780 46.333,44.858 46.333 C 45.127 46.333,45.027 42.836,44.750 42.560 C 44.603 42.413,44.500 42.005,44.500 41.571 C 44.500 41.099,44.425 40.829,44.292 40.820 C 44.009 40.802,45.683 40.005,46.008 40.002 C 46.150 40.001,46.338 39.939,46.425 39.863 C 46.512 39.788,47.146 39.520,47.833 39.267 C 49.599 38.618,49.947 38.475,52.750 37.240 C 54.303 36.555,55.471 36.139,55.833 36.142 C 56.345 36.145,59.086 34.983,59.333 34.659 C 59.379 34.599,59.688 34.422,60.019 34.266 C 60.351 34.111,60.769 33.846,60.949 33.679 C 61.128 33.511,61.439 33.322,61.638 33.259 C 61.837 33.196,62.000 33.074,62.000 32.989 C 62.000 32.903,62.112 32.833,62.250 32.833 C 62.387 32.833,62.500 32.766,62.500 32.685 C 62.500 32.603,62.688 32.489,62.917 32.432 C 63.146 32.374,63.333 32.253,63.333 32.163 C 63.333 32.074,63.446 32.000,63.583 32.000 C 63.721 32.000,63.833 31.926,63.833 31.837 C 63.833 31.747,64.023 31.626,64.254 31.567 C 64.485 31.509,64.766 31.338,64.879 31.186 C 64.991 31.035,65.271 30.790,65.500 30.643 C 65.729 30.496,66.203 30.103,66.554 29.771 C 66.904 29.439,67.226 29.167,67.269 29.167 C 67.461 29.167,69.262 27.424,69.701 26.812 C 70.135 26.209,70.539 25.684,71.015 25.107 C 71.252 24.819,71.551 24.340,71.680 24.042 C 71.809 23.744,71.968 23.500,72.033 23.500 C 72.098 23.500,72.201 23.237,72.261 22.915 C 72.322 22.593,72.438 22.289,72.519 22.238 C 72.600 22.188,72.667 21.926,72.667 21.657 C 72.667 21.387,72.742 21.167,72.833 21.167 C 72.925 21.167,73.000 20.829,73.000 20.417 C 73.000 19.225,72.478 19.350,70.727 20.958 C 70.502 21.165,70.218 21.333,70.096 21.333 C 69.974 21.333,69.781 21.446,69.667 21.583 C 69.553 21.721,69.356 21.833,69.230 21.833 C 69.103 21.833,69.000 21.908,69.000 22.000 C 69.000 22.092,68.887 22.167,68.750 22.167 C 68.612 22.167,68.500 22.233,68.500 22.315 C 68.500 22.396,68.237 22.512,67.917 22.572 C 67.596 22.633,67.333 22.753,67.333 22.841 C 67.333 22.928,67.146 23.000,66.917 23.000 C 66.688 23.000,66.500 23.075,66.500 23.167 C 66.500 23.258,66.390 23.333,66.256 23.333 C 65.963 23.333,64.527 23.783,64.146 23.994 C 63.996 24.076,63.602 24.195,63.269 24.257 C 62.936 24.320,62.622 24.438,62.572 24.519 C 62.521 24.600,62.304 24.667,62.087 24.667 C 61.871 24.667,61.669 24.731,61.639 24.809 C 61.419 25.376,60.380 25.153,59.860 24.429 C 59.348 23.716,57.889 22.167,57.730 22.167 C 57.688 22.167,57.369 21.885,57.021 21.541 C 56.674 21.196,56.101 20.690,55.748 20.416 C 55.395 20.141,54.970 19.785,54.803 19.625 C 54.637 19.465,54.444 19.332,54.375 19.331 C 54.306 19.329,54.010 19.117,53.718 18.859 C 53.425 18.600,52.919 18.208,52.594 17.986 C 52.268 17.765,52.002 17.527,52.001 17.458 C 52.001 17.390,51.887 17.333,51.750 17.333 C 51.612 17.333,51.500 17.260,51.500 17.170 C 51.500 17.080,51.313 16.959,51.083 16.902 C 50.854 16.844,50.667 16.743,50.667 16.678 C 50.667 16.516,48.806 15.667,48.451 15.667 C 48.295 15.667,48.167 15.597,48.167 15.512 C 48.167 15.427,47.754 15.306,47.250 15.243 C 46.746 15.180,46.333 15.062,46.333 14.981 C 46.333 14.900,46.038 14.833,45.677 14.833 C 45.315 14.833,44.973 14.758,44.917 14.667 C 44.852 14.562,43.168 14.500,40.417 14.500 C 37.665 14.500,35.981 14.562,35.917 14.667 C 35.860 14.758,35.448 14.833,35.000 14.833 C 34.552 14.833,34.145 14.899,34.095 14.980 C 34.046 15.061,33.516 15.180,32.919 15.244 C 32.322 15.308,31.833 15.429,31.833 15.513 C 31.833 15.598,31.702 15.665,31.542 15.663 C 31.165 15.658,31.894 15.050,32.458 14.898 C 32.665 14.843,32.833 14.730,32.833 14.649 C 32.833 14.567,33.021 14.500,33.250 14.500 C 33.479 14.500,33.667 14.430,33.667 14.345 C 33.667 14.260,34.080 14.139,34.586 14.076 C 35.091 14.013,35.545 13.895,35.595 13.814 C 35.645 13.733,35.944 13.667,36.260 13.667 C 36.575 13.667,36.833 13.594,36.833 13.506 C 36.833 13.418,37.526 13.324,38.373 13.298 C 40.359 13.236,40.412 13.098,39.212 11.128 C 39.004 10.786,38.833 10.393,38.833 10.253 C 38.833 10.114,38.758 10.000,38.667 10.000 C 38.575 10.000,38.500 9.920,38.500 9.821 C 38.500 9.235,38.078 9.167,34.438 9.167 C 32.466 9.167,30.813 9.232,30.764 9.311 M186.947 18.275 C 186.807 18.416,186.799 28.606,186.939 29.127 L 187.040 29.505 192.228 29.461 L 197.417 29.417 197.417 23.833 L 197.417 18.250 192.238 18.206 C 189.390 18.182,187.009 18.213,186.947 18.275 M18.500 23.167 C 18.500 23.258,18.429 23.333,18.341 23.333 C 18.254 23.333,18.058 23.596,17.905 23.917 C 17.753 24.238,17.579 24.500,17.519 24.500 C 17.459 24.500,17.262 24.781,17.081 25.125 C 16.901 25.469,16.710 25.787,16.657 25.833 C 16.491 25.976,15.167 28.764,15.167 28.971 C 15.167 29.079,15.092 29.167,15.000 29.167 C 14.908 29.167,14.833 29.312,14.833 29.490 C 14.833 29.668,14.767 29.855,14.686 29.905 C 14.604 29.955,14.488 30.260,14.428 30.581 C 14.368 30.903,14.247 31.167,14.159 31.167 C 14.072 31.167,14.000 31.280,14.000 31.419 C 14.000 31.558,13.927 31.801,13.839 31.961 C 13.618 32.355,13.167 33.788,13.167 34.091 C 13.167 34.227,13.101 34.468,13.020 34.627 C 12.754 35.154,12.504 36.087,12.405 36.924 C 12.351 37.379,12.242 37.900,12.164 38.083 C 12.085 38.267,11.979 38.904,11.928 39.500 C 11.617 43.155,11.499 43.420,11.226 41.083 C 11.183 40.717,11.072 40.263,10.981 40.076 C 10.778 39.662,10.887 35.934,11.136 34.750 C 11.440 33.307,11.746 32.199,11.875 32.069 C 11.944 32.001,12.000 31.769,12.000 31.556 C 12.000 31.342,12.067 31.167,12.148 31.167 C 12.230 31.167,12.345 30.904,12.406 30.583 C 12.466 30.262,12.569 30.000,12.635 30.000 C 12.763 30.000,13.333 28.775,13.333 28.499 C 13.333 28.408,13.390 28.332,13.458 28.330 C 13.527 28.328,13.808 27.990,14.083 27.580 C 14.358 27.170,14.640 26.834,14.708 26.834 C 14.777 26.833,14.833 26.755,14.833 26.659 C 14.833 26.564,15.021 26.283,15.250 26.036 C 15.479 25.789,15.667 25.532,15.667 25.466 C 15.667 25.307,16.382 24.589,17.418 23.709 C 18.267 22.988,18.500 22.871,18.500 23.167 M42.167 42.071 C 42.167 42.386,42.054 42.755,41.917 42.893 C 41.720 43.089,41.667 43.606,41.667 45.312 C 41.667 46.578,41.597 47.523,41.500 47.583 C 41.408 47.640,41.333 47.866,41.333 48.087 C 41.333 48.622,40.799 50.333,40.632 50.333 C 40.560 50.333,40.500 50.440,40.500 50.570 C 40.500 50.848,39.973 51.892,39.792 51.972 C 39.723 52.003,39.667 52.125,39.667 52.243 C 39.667 52.532,37.590 54.616,37.168 54.750 C 36.984 54.808,36.833 54.926,36.833 55.011 C 36.833 55.097,36.721 55.167,36.583 55.167 C 36.446 55.167,36.333 55.242,36.333 55.333 C 36.333 55.425,36.202 55.500,36.042 55.501 C 35.881 55.502,35.535 55.614,35.273 55.751 C 35.010 55.888,34.691 56.000,34.564 56.000 C 34.437 56.000,34.333 56.066,34.333 56.148 C 34.333 56.229,33.997 56.346,33.586 56.408 C 33.102 56.480,32.743 56.648,32.567 56.885 L 32.295 57.250 32.377 56.894 C 32.483 56.431,31.980 56.000,31.331 56.000 C 31.057 56.000,30.833 55.925,30.833 55.833 C 30.833 55.584,29.962 55.643,29.600 55.917 C 29.427 56.048,29.224 56.119,29.150 56.073 C 28.706 55.798,26.252 55.306,25.360 55.313 C 24.660 55.319,24.154 55.229,23.860 55.048 C 23.228 54.659,21.667 53.131,21.667 52.902 C 21.667 52.381,26.340 48.950,29.250 47.334 C 29.800 47.029,30.512 46.631,30.833 46.451 C 33.660 44.862,41.129 41.543,41.958 41.509 C 42.086 41.503,42.167 41.721,42.167 42.071 M28.243 57.407 C 29.762 57.674,30.022 57.898,29.877 58.806 C 29.638 60.300,29.687 60.255,28.348 60.207 C 26.215 60.130,25.778 59.494,26.517 57.542 C 26.683 57.102,26.565 57.111,28.243 57.407 " stroke="none" fill="#fac123" fill-rule="evenodd"></path><path id="path1" d="M94.250 35.605 C 93.792 35.643,93.267 35.738,93.083 35.817 C 92.791 35.942,92.186 36.086,90.458 36.443 C 90.206 36.495,90.000 36.604,90.000 36.686 C 90.000 36.767,89.850 36.833,89.667 36.833 C 89.483 36.833,89.333 36.905,89.333 36.992 C 89.333 37.080,89.071 37.201,88.750 37.261 C 88.429 37.321,88.167 37.437,88.167 37.519 C 88.167 37.600,88.054 37.667,87.917 37.667 C 87.779 37.667,87.667 37.738,87.667 37.826 C 87.667 37.913,87.404 38.034,87.083 38.094 C 86.763 38.155,86.500 38.270,86.500 38.352 C 86.500 38.433,86.394 38.500,86.264 38.500 C 86.134 38.500,86.003 38.556,85.972 38.625 C 85.942 38.694,85.410 39.087,84.790 39.500 C 84.170 39.912,83.621 40.381,83.570 40.542 C 83.519 40.702,83.411 40.833,83.330 40.833 C 83.199 40.833,81.145 42.851,80.501 43.612 C 80.066 44.127,79.500 45.009,79.500 45.174 C 79.500 45.262,79.437 45.333,79.360 45.333 C 79.282 45.333,79.076 45.615,78.901 45.958 C 78.726 46.302,78.542 46.621,78.491 46.667 C 78.343 46.801,77.833 47.950,77.833 48.150 C 77.833 48.251,77.758 48.333,77.667 48.333 C 77.575 48.333,77.500 48.483,77.500 48.667 C 77.500 48.850,77.428 49.000,77.341 49.000 C 77.253 49.000,77.132 49.263,77.072 49.585 C 77.012 49.907,76.896 50.211,76.814 50.262 C 76.733 50.312,76.667 50.499,76.667 50.677 C 76.667 50.854,76.600 51.000,76.518 51.000 C 76.437 51.000,76.328 51.244,76.277 51.542 C 76.162 52.213,75.759 53.830,75.624 54.167 C 74.968 55.793,74.991 63.798,75.656 65.417 C 75.793 65.750,76.104 67.107,76.278 68.125 C 76.328 68.423,76.437 68.667,76.518 68.667 C 76.600 68.667,76.667 68.854,76.667 69.083 C 76.667 69.313,76.742 69.500,76.833 69.500 C 76.925 69.500,77.000 69.612,77.000 69.749 C 77.000 70.096,77.551 71.333,77.706 71.333 C 77.776 71.333,77.833 71.453,77.833 71.600 C 77.833 71.863,78.313 73.005,78.491 73.167 C 78.542 73.212,78.714 73.512,78.874 73.833 C 79.292 74.672,79.533 75.032,79.958 75.449 C 80.165 75.652,80.333 75.884,80.333 75.966 C 80.333 76.047,80.633 76.420,81.000 76.794 C 81.367 77.168,81.667 77.539,81.667 77.618 C 81.667 77.698,82.045 78.097,82.508 78.506 C 82.971 78.915,83.579 79.456,83.859 79.708 C 84.139 79.960,84.446 80.167,84.540 80.167 C 84.634 80.167,84.832 80.306,84.980 80.476 C 85.129 80.646,85.419 80.839,85.625 80.904 C 85.831 80.969,86.000 81.092,86.000 81.178 C 86.000 81.263,86.112 81.333,86.250 81.333 C 86.388 81.333,86.500 81.408,86.500 81.500 C 86.500 81.592,86.642 81.667,86.816 81.667 C 86.989 81.667,87.174 81.779,87.227 81.917 C 87.280 82.054,87.469 82.167,87.648 82.167 C 87.826 82.167,87.997 82.223,88.028 82.292 C 88.113 82.484,89.305 83.000,89.662 83.000 C 89.837 83.000,90.027 83.075,90.083 83.167 C 90.140 83.258,90.392 83.333,90.643 83.333 C 90.894 83.333,91.194 83.427,91.308 83.542 C 91.465 83.698,92.659 83.750,96.119 83.750 C 99.654 83.750,100.738 83.702,100.792 83.542 C 100.830 83.427,101.113 83.333,101.421 83.333 C 101.729 83.333,102.027 83.258,102.083 83.167 C 102.140 83.075,102.351 83.000,102.552 82.999 C 102.752 82.998,103.131 82.886,103.394 82.749 C 103.657 82.612,103.975 82.500,104.102 82.500 C 104.229 82.500,104.333 82.433,104.333 82.351 C 104.333 82.270,104.504 82.160,104.712 82.108 C 104.920 82.056,105.254 81.860,105.455 81.673 C 105.655 81.486,105.935 81.333,106.076 81.333 C 106.218 81.333,106.333 81.266,106.333 81.185 C 106.333 81.103,106.516 80.990,106.739 80.934 C 106.962 80.878,107.191 80.687,107.247 80.508 C 107.304 80.330,107.508 80.134,107.701 80.073 C 108.391 79.854,110.690 77.546,110.911 76.852 C 110.969 76.668,111.155 76.473,111.324 76.420 C 111.493 76.366,111.692 76.156,111.767 75.953 C 111.843 75.750,111.944 80.340,111.994 86.153 C 112.064 94.396,112.129 96.738,112.292 96.792 C 112.406 96.830,112.500 96.961,112.500 97.084 C 112.500 98.049,115.282 100.833,116.247 100.833 C 116.386 100.833,116.500 100.907,116.500 100.998 C 116.500 101.089,116.800 101.211,117.167 101.269 C 117.533 101.328,117.833 101.441,117.833 101.521 C 117.833 101.828,124.371 101.669,124.917 101.349 L 125.417 101.056 125.455 96.987 C 125.498 92.374,125.546 92.557,124.167 92.119 C 122.404 91.560,122.595 94.814,122.500 63.750 C 122.454 48.808,122.356 36.490,122.282 36.375 C 122.092 36.082,113.493 36.074,113.200 36.367 C 113.058 36.509,113.000 37.544,113.000 39.965 L 113.000 43.363 112.458 42.762 C 110.545 40.638,108.058 38.500,107.503 38.500 C 107.409 38.500,107.333 38.433,107.333 38.351 C 107.333 38.270,107.146 38.156,106.917 38.098 C 106.688 38.041,106.500 37.920,106.500 37.830 C 106.500 37.740,106.388 37.667,106.250 37.667 C 106.112 37.667,106.000 37.595,106.000 37.508 C 106.000 37.420,105.737 37.299,105.417 37.239 C 105.096 37.179,104.833 37.081,104.833 37.022 C 104.833 36.787,102.545 36.000,101.861 36.000 C 101.607 36.000,101.318 35.918,101.218 35.818 C 101.031 35.631,95.855 35.473,94.250 35.605 M229.167 35.833 C 229.167 35.925,228.964 36.000,228.717 36.000 C 228.139 36.000,226.333 36.533,226.333 36.704 C 226.333 36.775,226.146 36.833,225.917 36.833 C 225.688 36.833,225.500 36.899,225.500 36.979 C 225.500 37.059,225.294 37.167,225.042 37.218 C 224.790 37.269,224.421 37.463,224.223 37.648 C 224.024 37.834,223.663 38.037,223.419 38.098 C 223.176 38.159,222.889 38.349,222.782 38.521 C 222.674 38.693,222.464 38.833,222.314 38.833 C 222.164 38.833,221.947 38.946,221.833 39.083 C 221.719 39.221,221.556 39.333,221.470 39.333 C 221.385 39.333,220.382 40.274,219.241 41.423 L 217.167 43.512 217.167 39.839 L 217.167 36.167 212.700 36.167 C 209.448 36.167,208.179 36.221,208.033 36.367 C 207.879 36.521,207.833 44.022,207.833 69.117 L 207.833 101.667 213.083 101.667 L 218.333 101.667 218.334 88.542 L 218.334 75.417 218.833 76.000 C 219.108 76.321,219.333 76.636,219.333 76.700 C 219.333 76.864,222.288 79.833,222.451 79.834 C 222.524 79.834,222.846 80.059,223.167 80.335 C 223.487 80.610,223.881 80.877,224.042 80.929 C 224.202 80.980,224.333 81.092,224.333 81.178 C 224.333 81.263,224.446 81.333,224.583 81.333 C 224.721 81.333,224.833 81.408,224.833 81.500 C 224.833 81.592,224.937 81.667,225.063 81.667 C 225.189 81.667,225.386 81.779,225.500 81.917 C 225.614 82.054,225.848 82.167,226.020 82.167 C 226.193 82.167,226.333 82.224,226.333 82.294 C 226.333 82.466,227.588 83.000,227.991 83.000 C 228.169 83.000,228.360 83.075,228.417 83.167 C 228.473 83.258,228.763 83.333,229.060 83.333 C 229.357 83.333,229.694 83.427,229.808 83.542 C 229.965 83.698,231.143 83.750,234.536 83.750 C 238.004 83.750,239.072 83.702,239.125 83.542 C 239.163 83.427,239.446 83.333,239.754 83.333 C 240.062 83.333,240.354 83.268,240.403 83.188 C 240.453 83.108,240.708 83.000,240.972 82.947 C 241.612 82.819,243.659 81.841,244.000 81.500 C 244.148 81.352,244.740 81.004,245.129 80.835 C 245.338 80.745,245.552 80.558,245.605 80.419 C 245.659 80.280,245.803 80.167,245.927 80.167 C 246.050 80.167,246.324 79.994,246.534 79.784 C 246.745 79.573,247.142 79.264,247.417 79.096 C 247.692 78.927,248.217 78.423,248.583 77.975 C 248.950 77.527,249.456 76.948,249.708 76.687 C 249.960 76.427,250.167 76.096,250.167 75.952 C 250.167 75.807,250.298 75.647,250.458 75.597 C 250.734 75.509,251.667 74.154,251.667 73.840 C 251.667 73.760,251.723 73.669,251.792 73.639 C 251.998 73.547,253.000 71.477,253.000 71.143 C 253.000 70.973,253.075 70.833,253.167 70.833 C 253.258 70.833,253.333 70.646,253.333 70.417 C 253.333 70.188,253.402 70.000,253.485 70.000 C 253.569 70.000,253.688 69.700,253.750 69.333 C 253.812 68.967,253.931 68.667,254.015 68.667 C 254.098 68.667,254.167 68.404,254.167 68.083 C 254.167 67.762,254.233 67.500,254.314 67.500 C 254.396 67.500,254.504 67.294,254.554 67.042 C 254.605 66.790,254.723 66.246,254.816 65.833 C 254.909 65.421,254.989 64.732,254.993 64.302 C 254.997 63.871,255.075 63.473,255.167 63.417 C 255.373 63.289,255.396 56.392,255.191 56.265 C 255.113 56.217,255.004 55.631,254.950 54.964 C 254.848 53.710,254.530 52.554,253.992 51.479 C 253.917 51.330,253.805 50.936,253.743 50.604 C 253.681 50.272,253.563 50.000,253.481 50.000 C 253.400 50.000,253.333 49.813,253.333 49.583 C 253.333 49.354,253.258 49.167,253.167 49.167 C 253.075 49.167,253.000 49.055,253.000 48.918 C 253.000 48.570,252.449 47.333,252.294 47.333 C 252.224 47.333,252.167 47.193,252.167 47.020 C 252.167 46.848,252.054 46.614,251.917 46.500 C 251.779 46.386,251.667 46.189,251.667 46.063 C 251.667 45.937,251.609 45.833,251.538 45.833 C 251.467 45.833,251.268 45.571,251.095 45.250 C 250.922 44.929,250.718 44.667,250.640 44.667 C 250.563 44.667,250.500 44.583,250.500 44.480 C 250.500 44.378,250.219 44.004,249.875 43.649 C 249.055 42.802,248.833 42.537,248.833 42.404 C 248.833 42.256,247.343 40.833,247.188 40.833 C 247.122 40.833,246.765 40.552,246.396 40.208 C 245.435 39.313,245.082 39.049,244.684 38.922 C 244.491 38.861,244.333 38.741,244.333 38.655 C 244.333 38.570,244.183 38.500,244.000 38.500 C 243.817 38.500,243.667 38.433,243.667 38.351 C 243.667 38.270,243.473 38.154,243.236 38.095 C 242.999 38.035,242.643 37.834,242.444 37.648 C 242.246 37.463,241.877 37.269,241.625 37.218 C 241.373 37.167,241.167 37.059,241.167 36.979 C 241.167 36.899,240.985 36.833,240.764 36.833 C 240.542 36.833,240.336 36.776,240.306 36.706 C 240.227 36.526,238.474 36.000,237.954 36.000 C 237.715 36.000,237.473 35.925,237.417 35.833 C 237.353 35.730,235.776 35.667,233.240 35.667 C 230.636 35.667,229.167 35.727,229.167 35.833 M279.750 35.833 C 279.693 35.925,279.452 36.000,279.213 36.000 C 278.692 36.000,276.940 36.526,276.861 36.706 C 276.831 36.776,276.662 36.833,276.486 36.833 C 276.310 36.833,276.167 36.908,276.167 37.000 C 276.167 37.092,276.022 37.167,275.845 37.167 C 275.668 37.167,275.411 37.279,275.274 37.417 C 275.136 37.554,274.906 37.667,274.762 37.667 C 274.618 37.667,274.500 37.734,274.500 37.815 C 274.500 37.897,274.313 38.011,274.083 38.068 C 273.854 38.126,273.667 38.247,273.667 38.337 C 273.667 38.426,273.554 38.500,273.417 38.500 C 273.279 38.500,273.167 38.567,273.167 38.649 C 273.167 38.730,272.979 38.844,272.750 38.902 C 272.521 38.959,272.333 39.080,272.333 39.170 C 272.333 39.260,272.259 39.333,272.168 39.333 C 271.881 39.333,269.474 41.588,268.458 42.808 L 268.000 43.359 268.000 39.849 C 268.000 36.348,267.999 36.339,267.625 36.248 C 267.419 36.198,265.300 36.177,262.917 36.203 L 258.583 36.250 258.541 68.961 L 258.499 101.671 263.791 101.627 L 269.083 101.583 269.126 88.792 C 269.150 81.756,269.206 76.000,269.251 76.000 C 269.386 76.000,270.000 76.656,270.000 76.800 C 270.000 76.990,272.669 79.667,272.858 79.667 C 272.945 79.667,273.190 79.854,273.402 80.083 C 273.614 80.313,273.864 80.500,273.957 80.500 C 274.050 80.500,274.219 80.612,274.333 80.750 C 274.447 80.887,274.677 81.000,274.843 81.000 C 275.008 81.000,275.192 81.150,275.250 81.333 C 275.308 81.517,275.501 81.667,275.678 81.667 C 275.855 81.667,276.000 81.740,276.000 81.830 C 276.000 81.920,276.188 82.041,276.417 82.098 C 276.646 82.156,276.833 82.257,276.833 82.324 C 276.833 82.474,279.339 83.333,279.779 83.333 C 279.955 83.333,280.194 83.427,280.308 83.542 C 280.465 83.698,281.636 83.750,285.000 83.750 C 288.364 83.750,289.535 83.698,289.692 83.542 C 289.806 83.427,290.106 83.333,290.357 83.333 C 290.608 83.333,290.860 83.258,290.917 83.167 C 290.973 83.075,291.226 83.000,291.478 83.000 C 291.730 83.000,292.082 82.890,292.260 82.755 C 292.438 82.621,292.715 82.508,292.875 82.505 C 293.035 82.502,293.167 82.433,293.167 82.351 C 293.167 82.270,293.337 82.160,293.545 82.108 C 293.753 82.056,294.087 81.860,294.288 81.673 C 294.489 81.486,294.768 81.333,294.910 81.333 C 295.051 81.333,295.167 81.263,295.167 81.178 C 295.167 81.092,295.335 80.969,295.542 80.904 C 295.748 80.839,296.038 80.646,296.186 80.476 C 296.334 80.306,296.535 80.167,296.632 80.167 C 296.730 80.167,296.957 79.979,297.137 79.750 C 297.317 79.521,297.532 79.333,297.615 79.333 C 297.785 79.333,299.667 77.578,299.667 77.420 C 299.667 77.285,299.986 76.905,300.542 76.379 C 300.794 76.140,301.000 75.879,301.000 75.798 C 301.000 75.718,301.188 75.464,301.417 75.235 C 301.646 75.006,301.833 74.709,301.833 74.576 C 301.833 74.442,301.892 74.333,301.965 74.333 C 302.037 74.333,302.318 73.902,302.589 73.375 C 302.860 72.848,303.119 72.379,303.166 72.333 C 303.337 72.164,303.833 70.981,303.833 70.742 C 303.833 70.606,303.908 70.346,304.000 70.164 C 304.092 69.982,304.240 69.687,304.330 69.507 C 304.420 69.328,304.542 68.878,304.602 68.507 C 304.661 68.137,304.775 67.833,304.855 67.833 C 304.935 67.833,305.000 67.623,305.000 67.367 C 305.000 67.110,305.073 66.827,305.163 66.737 C 305.252 66.648,305.376 65.918,305.438 65.115 C 305.500 64.312,305.614 63.616,305.692 63.568 C 305.878 63.453,305.876 56.000,305.691 56.000 C 305.612 56.000,305.496 55.382,305.433 54.626 C 305.370 53.870,305.247 53.180,305.159 53.093 C 305.072 53.005,305.000 52.807,305.000 52.652 C 305.000 52.498,304.888 52.157,304.751 51.894 C 304.614 51.631,304.502 51.248,304.501 51.042 C 304.500 50.835,304.425 50.667,304.333 50.667 C 304.242 50.667,304.167 50.479,304.167 50.250 C 304.167 50.021,304.092 49.833,304.000 49.833 C 303.908 49.833,303.833 49.676,303.833 49.484 C 303.833 49.154,303.378 48.015,303.174 47.833 C 303.122 47.788,302.866 47.319,302.603 46.792 C 302.341 46.265,302.061 45.833,301.980 45.833 C 301.899 45.833,301.833 45.726,301.833 45.595 C 301.833 45.464,301.735 45.258,301.614 45.137 C 301.493 45.016,301.249 44.694,301.072 44.422 C 300.479 43.511,297.622 40.500,297.350 40.500 C 297.249 40.500,297.167 40.444,297.166 40.375 C 297.166 40.306,296.830 40.025,296.420 39.750 C 296.010 39.475,295.672 39.202,295.670 39.143 C 295.668 39.084,295.479 38.989,295.250 38.932 C 295.021 38.874,294.833 38.753,294.833 38.663 C 294.833 38.574,294.721 38.500,294.583 38.500 C 294.446 38.500,294.333 38.425,294.333 38.333 C 294.333 38.242,294.193 38.167,294.020 38.167 C 293.848 38.167,293.614 38.054,293.500 37.917 C 293.386 37.779,293.189 37.667,293.063 37.667 C 292.937 37.667,292.833 37.595,292.833 37.508 C 292.833 37.420,292.571 37.299,292.250 37.239 C 291.929 37.179,291.667 37.073,291.667 37.004 C 291.667 36.817,289.093 36.000,288.506 36.000 C 288.228 36.000,288.000 35.925,288.000 35.833 C 288.000 35.727,286.531 35.667,283.927 35.667 C 281.391 35.667,279.814 35.730,279.750 35.833 M333.917 35.833 C 333.860 35.925,333.424 36.003,332.948 36.007 C 332.473 36.011,331.783 36.123,331.417 36.255 C 331.050 36.387,330.619 36.496,330.458 36.497 C 330.298 36.499,330.167 36.557,330.167 36.627 C 330.167 36.745,328.966 37.333,328.727 37.333 C 328.669 37.333,328.501 37.473,328.353 37.643 C 328.205 37.813,327.933 38.000,327.750 38.058 C 327.461 38.151,327.150 38.375,326.215 39.163 C 326.105 39.257,325.963 39.333,325.901 39.333 C 325.783 39.333,323.272 41.873,322.833 42.436 C 322.696 42.612,322.362 43.055,322.092 43.420 C 321.822 43.785,321.551 44.121,321.490 44.167 C 321.428 44.212,321.326 44.419,321.261 44.625 C 320.937 45.663,320.833 44.705,320.833 40.684 C 320.833 36.903,320.801 36.356,320.570 36.268 C 320.226 36.136,311.608 36.136,311.264 36.268 C 311.025 36.359,311.000 38.577,311.000 59.681 L 311.000 82.994 311.375 83.085 C 311.581 83.136,313.887 83.156,316.500 83.130 L 321.250 83.083 321.293 69.009 C 321.316 61.268,321.395 54.893,321.468 54.843 C 321.637 54.725,322.167 53.593,322.167 53.350 C 322.167 53.249,322.233 53.167,322.314 53.167 C 322.395 53.167,322.509 53.035,322.567 52.875 C 322.872 52.029,323.560 51.248,325.648 49.377 C 326.729 48.407,326.830 48.333,327.083 48.333 C 327.221 48.333,327.333 48.264,327.333 48.180 C 327.333 48.096,327.558 47.977,327.833 47.917 C 328.108 47.856,328.333 47.738,328.333 47.653 C 328.333 47.569,328.483 47.500,328.667 47.500 C 328.850 47.500,329.000 47.428,329.000 47.341 C 329.000 47.253,329.263 47.132,329.585 47.072 C 329.907 47.012,330.211 46.896,330.262 46.814 C 330.312 46.733,330.536 46.667,330.760 46.667 C 330.984 46.667,331.167 46.599,331.167 46.516 C 331.167 46.434,331.617 46.314,332.167 46.250 C 332.717 46.186,333.167 46.066,333.167 45.984 C 333.167 45.901,333.542 45.833,334.000 45.833 C 334.458 45.833,334.833 45.758,334.833 45.667 C 334.833 45.569,335.410 45.500,336.231 45.500 C 337.539 45.500,337.634 45.476,337.728 45.125 C 337.873 44.586,337.852 36.449,337.706 36.250 C 337.309 35.710,334.204 35.368,333.917 35.833 M359.000 35.833 C 359.000 35.925,358.709 36.000,358.352 36.000 C 357.996 36.000,357.303 36.121,356.811 36.268 C 355.756 36.584,355.637 36.630,353.542 37.518 C 353.244 37.645,353.000 37.801,353.000 37.866 C 353.000 37.932,352.738 38.034,352.417 38.094 C 352.096 38.155,351.833 38.270,351.833 38.352 C 351.833 38.433,351.721 38.500,351.583 38.500 C 351.446 38.500,351.333 38.574,351.333 38.663 C 351.333 38.753,351.146 38.874,350.917 38.932 C 350.688 38.989,350.500 39.103,350.500 39.185 C 350.500 39.266,350.387 39.333,350.250 39.333 C 350.113 39.333,350.000 39.408,350.000 39.500 C 350.000 39.592,349.894 39.667,349.764 39.667 C 349.635 39.667,349.258 39.929,348.928 40.250 C 348.598 40.571,348.255 40.833,348.167 40.833 C 347.952 40.833,345.560 43.224,344.832 44.167 C 344.513 44.579,344.196 44.942,344.126 44.972 C 344.057 45.003,344.000 45.128,344.000 45.250 C 344.000 45.372,343.944 45.497,343.875 45.528 C 343.695 45.608,342.833 46.961,342.833 47.163 C 342.833 47.257,342.764 47.333,342.680 47.333 C 342.596 47.333,342.477 47.558,342.417 47.833 C 342.356 48.108,342.238 48.333,342.153 48.333 C 342.069 48.333,342.000 48.483,342.000 48.667 C 342.000 48.850,341.935 49.000,341.855 49.000 C 341.775 49.000,341.661 49.300,341.603 49.667 C 341.544 50.033,341.422 50.333,341.331 50.333 C 341.241 50.333,341.167 50.483,341.167 50.667 C 341.167 50.850,341.092 51.000,341.000 51.000 C 340.908 51.000,340.832 51.131,340.831 51.292 C 340.829 51.452,340.720 51.883,340.588 52.250 C 340.456 52.617,340.345 53.160,340.341 53.458 C 340.337 53.756,340.266 54.000,340.184 54.000 C 340.036 54.000,339.970 54.337,339.674 56.583 C 339.471 58.126,339.476 61.458,339.683 62.917 C 339.774 63.558,339.890 64.402,339.941 64.792 C 339.992 65.181,340.101 65.500,340.183 65.500 C 340.266 65.500,340.333 65.695,340.333 65.933 C 340.333 66.457,340.812 68.188,341.018 68.408 C 341.100 68.495,341.167 68.702,341.167 68.867 C 341.167 69.032,341.242 69.167,341.333 69.167 C 341.425 69.167,341.500 69.292,341.500 69.446 C 341.500 69.709,342.784 72.487,342.988 72.667 C 343.041 72.712,343.226 73.031,343.401 73.375 C 343.576 73.719,343.782 74.000,343.860 74.000 C 343.937 74.000,344.000 74.080,344.000 74.179 C 344.000 74.277,344.094 74.460,344.208 74.587 C 344.323 74.713,344.679 75.132,345.000 75.517 C 346.129 76.873,348.452 79.129,348.849 79.254 C 349.070 79.324,349.363 79.510,349.500 79.667 C 349.637 79.824,349.919 80.006,350.125 80.071 C 350.331 80.136,350.500 80.259,350.500 80.345 C 350.500 80.430,350.613 80.500,350.750 80.500 C 350.887 80.500,351.000 80.574,351.000 80.663 C 351.000 80.753,351.188 80.874,351.417 80.932 C 351.646 80.989,351.833 81.103,351.833 81.185 C 351.833 81.266,351.977 81.333,352.153 81.333 C 352.328 81.333,352.497 81.390,352.528 81.458 C 352.615 81.655,353.607 82.167,353.901 82.167 C 354.047 82.167,354.167 82.242,354.167 82.333 C 354.167 82.425,354.312 82.500,354.490 82.500 C 354.668 82.500,354.856 82.568,354.908 82.652 C 354.959 82.736,355.320 82.857,355.709 82.921 C 356.098 82.985,356.492 83.095,356.583 83.166 C 356.675 83.236,357.012 83.333,357.333 83.381 C 357.654 83.430,358.217 83.549,358.583 83.647 C 359.468 83.884,367.699 83.884,368.583 83.647 C 368.950 83.549,369.512 83.430,369.833 83.381 C 370.154 83.333,370.492 83.236,370.583 83.166 C 370.675 83.095,371.068 82.985,371.457 82.921 C 371.847 82.857,372.207 82.736,372.259 82.652 C 372.311 82.568,372.499 82.500,372.677 82.500 C 372.854 82.500,373.000 82.425,373.000 82.333 C 373.000 82.242,373.120 82.167,373.266 82.167 C 373.560 82.167,374.551 81.655,374.639 81.458 C 374.669 81.390,374.838 81.333,375.014 81.333 C 375.190 81.333,375.333 81.266,375.333 81.185 C 375.333 81.103,375.521 80.989,375.750 80.932 C 375.979 80.874,376.167 80.753,376.167 80.663 C 376.167 80.574,376.279 80.500,376.417 80.500 C 376.554 80.500,376.667 80.433,376.667 80.351 C 376.667 80.270,376.854 80.156,377.083 80.098 C 377.313 80.041,377.500 79.920,377.500 79.830 C 377.500 79.740,377.580 79.667,377.678 79.667 C 377.997 79.667,379.924 78.085,380.886 77.034 C 380.994 76.915,381.181 76.727,381.300 76.617 C 381.513 76.419,381.591 76.338,382.254 75.617 C 382.440 75.415,382.756 74.984,382.955 74.659 C 383.155 74.334,383.472 73.892,383.659 73.675 C 383.847 73.459,384.000 73.181,384.000 73.058 C 384.000 72.934,384.075 72.833,384.167 72.833 C 384.258 72.833,384.333 72.721,384.333 72.583 C 384.333 72.446,384.407 72.333,384.497 72.333 C 384.587 72.333,384.707 72.146,384.765 71.917 C 384.822 71.688,384.936 71.500,385.018 71.500 C 385.100 71.500,385.167 71.394,385.167 71.264 C 385.167 71.133,385.274 70.815,385.406 70.555 C 386.067 69.253,386.489 68.154,386.678 67.250 C 386.792 66.700,386.949 66.179,387.026 66.092 C 387.104 66.005,387.167 65.663,387.167 65.333 C 387.167 65.003,387.260 64.640,387.375 64.525 C 387.532 64.368,387.583 63.164,387.583 59.666 C 387.583 56.169,387.532 54.965,387.375 54.808 C 387.260 54.694,387.167 54.352,387.167 54.050 C 387.167 53.747,387.092 53.500,387.000 53.500 C 386.908 53.500,386.832 53.294,386.831 53.042 C 386.828 52.552,386.311 50.756,386.117 50.561 C 386.053 50.497,386.000 50.307,386.000 50.139 C 386.000 49.971,385.933 49.833,385.852 49.833 C 385.770 49.833,385.655 49.571,385.594 49.250 C 385.534 48.929,385.413 48.667,385.326 48.667 C 385.238 48.667,385.167 48.554,385.167 48.417 C 385.167 48.279,385.101 48.167,385.021 48.167 C 384.941 48.167,384.833 47.960,384.782 47.708 C 384.731 47.456,384.544 47.094,384.365 46.904 C 384.187 46.713,383.989 46.395,383.926 46.196 C 383.863 45.996,383.741 45.833,383.655 45.833 C 383.570 45.833,383.500 45.721,383.500 45.583 C 383.500 45.446,383.441 45.333,383.369 45.333 C 383.297 45.333,383.097 45.090,382.923 44.792 C 382.322 43.759,378.001 39.667,377.511 39.667 C 377.413 39.667,377.333 39.608,377.333 39.537 C 377.333 39.466,376.997 39.260,376.585 39.079 C 376.173 38.898,375.836 38.694,375.835 38.625 C 375.834 38.556,375.721 38.500,375.583 38.500 C 375.446 38.500,375.333 38.433,375.333 38.352 C 375.333 38.270,375.071 38.155,374.750 38.094 C 374.429 38.034,374.167 37.913,374.167 37.826 C 374.167 37.738,374.054 37.667,373.917 37.667 C 373.779 37.667,373.667 37.600,373.667 37.519 C 373.667 37.437,373.404 37.321,373.083 37.261 C 372.762 37.201,372.500 37.080,372.500 36.992 C 372.500 36.905,372.313 36.833,372.083 36.833 C 371.854 36.833,371.667 36.767,371.667 36.686 C 371.667 36.532,371.488 36.483,369.639 36.129 C 369.027 36.012,368.471 35.860,368.403 35.791 C 368.207 35.596,359.000 35.637,359.000 35.833 M55.500 36.333 C 54.868 36.705,52.179 37.871,49.750 38.826 C 48.283 39.402,46.933 39.934,46.750 40.006 C 46.567 40.079,46.039 40.266,45.577 40.423 C 44.756 40.701,44.739 40.720,44.794 41.312 C 44.921 42.692,44.897 42.667,46.077 42.667 C 46.665 42.667,47.193 42.742,47.250 42.833 C 47.307 42.925,47.611 43.000,47.927 43.000 C 48.242 43.000,48.500 43.066,48.500 43.148 C 48.500 43.229,48.836 43.346,49.246 43.407 C 49.656 43.469,50.036 43.590,50.089 43.676 C 50.143 43.763,50.369 43.833,50.593 43.833 C 50.817 43.833,51.000 43.908,51.000 44.000 C 51.000 44.092,51.082 44.167,51.183 44.167 C 51.516 44.167,52.577 44.734,52.966 45.120 C 53.176 45.329,53.410 45.500,53.484 45.500 C 53.627 45.500,56.333 48.122,56.333 48.261 C 56.333 48.346,57.189 49.693,57.332 49.833 C 57.660 50.155,58.833 52.907,58.833 53.354 C 58.833 53.526,58.908 53.667,59.000 53.667 C 59.092 53.667,59.167 54.000,59.167 54.407 C 59.167 54.814,59.242 55.193,59.333 55.250 C 59.425 55.307,59.500 55.686,59.500 56.093 L 59.500 56.833 50.026 56.833 L 40.552 56.833 40.234 57.192 C 39.611 57.896,37.705 58.984,36.322 59.424 C 34.125 60.124,33.941 60.167,33.135 60.167 C 32.377 60.167,32.377 60.167,32.163 60.929 C 31.642 62.791,30.410 63.054,26.637 62.106 C 23.873 61.412,23.402 60.966,23.503 59.132 C 23.551 58.262,23.537 58.235,22.792 57.750 C 22.038 57.261,20.589 55.848,20.156 55.180 L 19.895 54.778 19.443 55.431 C 17.957 57.577,18.096 57.078,18.034 60.500 C 17.974 63.799,18.320 67.833,18.663 67.833 C 18.733 67.833,18.841 68.283,18.903 68.833 C 18.966 69.383,19.088 69.833,19.175 69.833 C 19.262 69.833,19.333 70.058,19.333 70.333 C 19.333 70.608,19.399 70.833,19.478 70.833 C 19.558 70.833,19.664 71.084,19.713 71.390 C 19.763 71.697,20.073 72.514,20.402 73.208 C 20.731 73.901,21.000 74.550,21.000 74.651 C 21.000 74.751,21.068 74.833,21.152 74.833 C 21.235 74.833,21.470 75.177,21.673 75.597 C 21.876 76.017,22.146 76.400,22.271 76.448 C 22.397 76.496,22.500 76.643,22.500 76.774 C 22.500 77.364,23.675 78.804,26.203 81.311 C 28.092 83.184,28.261 83.333,28.493 83.333 C 28.589 83.333,28.667 83.403,28.667 83.489 C 28.667 83.574,28.835 83.697,29.042 83.763 C 29.248 83.828,29.529 84.010,29.667 84.167 C 29.804 84.324,30.085 84.506,30.292 84.571 C 30.498 84.636,30.667 84.759,30.667 84.845 C 30.667 84.930,30.779 85.000,30.917 85.000 C 31.054 85.000,31.167 85.075,31.167 85.167 C 31.167 85.258,31.317 85.333,31.500 85.333 C 31.683 85.333,31.833 85.402,31.833 85.487 C 31.833 85.571,32.058 85.690,32.333 85.750 C 32.608 85.810,32.833 85.911,32.833 85.974 C 32.833 86.119,34.087 86.667,34.418 86.667 C 34.555 86.667,34.667 86.725,34.667 86.796 C 34.667 86.967,36.473 87.500,37.050 87.500 C 37.297 87.500,37.500 87.575,37.500 87.667 C 37.500 87.758,37.869 87.833,38.319 87.833 C 38.827 87.833,39.165 87.913,39.208 88.042 C 39.262 88.203,40.520 88.250,44.750 88.250 C 48.980 88.250,50.238 88.203,50.292 88.042 C 50.335 87.913,50.673 87.833,51.181 87.833 C 51.631 87.833,52.000 87.769,52.000 87.690 C 52.000 87.611,52.415 87.497,52.922 87.437 C 53.430 87.378,53.992 87.255,54.172 87.165 C 54.353 87.074,54.649 86.925,54.831 86.833 C 55.013 86.742,55.246 86.667,55.348 86.667 C 55.555 86.667,56.704 86.154,56.833 86.004 C 56.879 85.951,57.235 85.767,57.625 85.595 C 58.015 85.423,58.333 85.219,58.333 85.141 C 58.333 85.064,58.446 85.000,58.583 85.000 C 58.721 85.000,58.833 84.925,58.833 84.833 C 58.833 84.742,58.942 84.667,59.076 84.667 C 59.209 84.667,59.497 84.488,59.715 84.270 C 59.933 84.052,60.274 83.822,60.472 83.759 C 60.671 83.696,60.833 83.574,60.833 83.489 C 60.833 83.403,60.946 83.333,61.083 83.333 C 61.221 83.333,61.333 83.263,61.333 83.178 C 61.333 83.092,61.473 82.978,61.643 82.924 C 62.098 82.780,64.167 80.751,64.167 80.448 C 64.167 80.306,64.317 80.142,64.500 80.083 C 64.683 80.025,64.833 79.919,64.833 79.847 C 64.833 79.775,65.040 79.489,65.292 79.211 C 66.045 78.380,66.495 77.762,66.498 77.556 C 66.499 77.449,66.556 77.336,66.625 77.306 C 66.806 77.225,67.333 76.181,67.333 75.903 C 67.333 75.773,67.400 75.667,67.482 75.667 C 67.683 75.667,67.857 74.923,67.732 74.597 C 67.676 74.452,67.488 74.333,67.313 74.333 C 67.138 74.333,66.865 74.267,66.706 74.187 C 66.226 73.944,64.770 73.498,64.458 73.499 C 64.298 73.500,64.167 73.434,64.167 73.352 C 64.167 73.201,64.009 73.157,62.208 72.806 C 61.635 72.695,61.167 72.542,61.167 72.468 C 61.167 72.394,60.984 72.333,60.760 72.333 C 60.536 72.333,60.312 72.267,60.262 72.186 C 60.212 72.105,59.814 71.985,59.377 71.920 C 58.941 71.854,58.527 71.714,58.457 71.609 C 58.293 71.360,57.718 72.078,57.576 72.708 C 57.520 72.960,57.421 73.167,57.356 73.167 C 57.291 73.167,57.098 73.405,56.926 73.696 C 56.473 74.463,55.111 76.000,54.884 76.000 C 54.829 76.000,54.529 76.262,54.217 76.583 C 53.906 76.904,53.588 77.167,53.512 77.167 C 53.436 77.167,53.281 77.279,53.167 77.417 C 53.053 77.554,52.818 77.667,52.646 77.667 C 52.474 77.667,52.333 77.742,52.333 77.833 C 52.333 77.925,52.221 78.000,52.083 78.000 C 51.946 78.000,51.833 78.075,51.833 78.167 C 51.833 78.258,51.702 78.334,51.542 78.334 C 51.381 78.335,51.035 78.447,50.773 78.584 C 50.510 78.721,50.131 78.833,49.931 78.833 C 49.731 78.833,49.495 78.900,49.408 78.982 C 48.705 79.640,41.609 79.644,40.925 78.986 C 40.838 78.902,40.603 78.833,40.402 78.833 C 40.202 78.833,39.823 78.721,39.561 78.584 C 39.298 78.447,38.952 78.335,38.792 78.334 C 38.631 78.334,38.500 78.258,38.500 78.167 C 38.500 78.075,38.387 78.000,38.250 78.000 C 38.112 78.000,38.000 77.942,38.000 77.871 C 38.000 77.800,37.737 77.601,37.417 77.428 C 37.096 77.256,36.833 77.051,36.833 76.974 C 36.833 76.897,36.735 76.833,36.615 76.833 C 36.347 76.833,33.500 74.069,33.500 73.809 C 33.500 73.706,33.361 73.501,33.191 73.353 C 33.020 73.205,32.828 72.915,32.763 72.708 C 32.697 72.502,32.574 72.333,32.489 72.333 C 32.403 72.333,32.333 72.221,32.333 72.083 C 32.333 71.946,32.277 71.833,32.207 71.833 C 32.086 71.833,31.746 70.987,31.554 70.208 C 31.503 70.002,31.395 69.833,31.314 69.833 C 31.233 69.833,31.167 69.646,31.167 69.417 C 31.167 69.188,31.097 69.000,31.012 69.000 C 30.927 69.000,30.806 68.587,30.743 68.081 C 30.679 67.576,30.561 67.121,30.481 67.071 C 30.400 67.021,30.333 66.625,30.333 66.190 C 30.333 65.756,30.243 65.310,30.133 65.200 C 29.978 65.044,34.476 65.000,50.373 65.000 C 66.543 65.000,70.842 64.956,70.948 64.792 C 71.161 64.464,71.109 56.417,70.893 56.146 C 70.792 56.020,70.658 55.439,70.595 54.856 C 70.531 54.273,70.416 53.673,70.339 53.523 C 70.262 53.373,70.103 52.913,69.986 52.500 C 69.869 52.087,69.720 51.675,69.656 51.583 C 69.591 51.492,69.483 51.157,69.415 50.839 C 69.347 50.521,69.232 50.146,69.159 50.005 C 68.859 49.421,68.500 48.520,68.500 48.350 C 68.500 48.249,68.425 48.167,68.333 48.167 C 68.242 48.167,68.167 48.017,68.167 47.833 C 68.167 47.650,68.092 47.500,68.000 47.500 C 67.908 47.500,67.833 47.419,67.833 47.321 C 67.833 46.885,66.316 44.521,65.458 43.622 C 65.206 43.357,65.000 43.074,65.000 42.991 C 65.000 42.909,64.306 42.144,63.458 41.292 C 62.076 39.902,61.575 39.473,60.687 38.917 C 60.541 38.825,60.308 38.629,60.169 38.482 C 60.030 38.335,59.748 38.161,59.542 38.096 C 59.335 38.031,59.167 37.908,59.167 37.822 C 59.167 37.737,59.025 37.667,58.851 37.667 C 58.678 37.667,58.492 37.554,58.440 37.417 C 58.387 37.279,58.219 37.167,58.066 37.167 C 57.914 37.167,57.668 37.034,57.520 36.871 C 56.981 36.281,56.023 36.026,55.500 36.333 M132.776 36.471 C 132.322 36.973,132.530 69.833,132.987 69.833 C 133.060 69.833,133.170 70.452,133.233 71.208 C 133.295 71.965,133.419 72.608,133.507 72.639 C 133.595 72.669,133.667 72.909,133.667 73.171 C 133.667 73.433,133.732 73.687,133.811 73.736 C 133.891 73.786,134.006 74.199,134.066 74.656 C 134.127 75.113,134.249 75.531,134.338 75.586 C 134.427 75.641,134.500 75.826,134.500 75.996 C 134.500 76.166,134.556 76.331,134.625 76.361 C 134.694 76.392,134.920 76.765,135.128 77.190 C 135.335 77.615,135.616 78.056,135.753 78.169 C 135.889 78.282,136.000 78.465,136.000 78.576 C 136.000 78.687,136.206 78.973,136.458 79.212 C 136.710 79.451,137.007 79.744,137.117 79.865 C 137.227 79.985,137.415 80.175,137.534 80.287 C 137.653 80.399,137.846 80.587,137.963 80.704 C 138.602 81.344,139.004 81.667,139.159 81.667 C 139.255 81.667,139.333 81.740,139.333 81.830 C 139.333 81.920,139.521 82.041,139.750 82.098 C 139.979 82.156,140.167 82.263,140.167 82.338 C 140.167 82.412,140.523 82.604,140.958 82.764 C 141.394 82.924,141.821 83.118,141.908 83.194 C 141.995 83.271,142.262 83.333,142.500 83.333 C 142.738 83.333,143.015 83.415,143.114 83.514 C 143.681 84.081,153.892 83.746,154.261 83.148 C 154.312 83.067,154.517 83.000,154.718 83.001 C 155.157 83.002,156.727 82.468,156.806 82.292 C 156.836 82.223,156.929 82.167,157.013 82.167 C 157.287 82.167,158.500 81.591,158.500 81.461 C 158.500 81.391,158.612 81.333,158.750 81.333 C 158.887 81.333,159.000 81.258,159.000 81.167 C 159.000 81.075,159.152 81.000,159.339 81.000 C 159.525 81.000,159.720 80.887,159.773 80.750 C 159.826 80.612,160.011 80.500,160.184 80.500 C 160.358 80.500,160.500 80.442,160.500 80.371 C 160.500 80.300,160.762 80.101,161.083 79.928 C 161.404 79.756,161.667 79.551,161.667 79.474 C 161.667 79.397,161.758 79.333,161.869 79.333 C 162.069 79.333,164.597 76.794,165.601 75.584 L 166.119 74.960 166.203 76.990 C 166.252 78.176,166.365 79.099,166.477 79.210 C 166.581 79.314,166.667 79.572,166.667 79.783 C 166.667 79.994,166.742 80.167,166.833 80.167 C 166.925 80.167,167.000 80.268,167.000 80.393 C 167.000 80.766,168.874 82.579,169.500 82.812 C 169.821 82.930,170.214 83.097,170.373 83.181 C 170.532 83.265,170.921 83.333,171.238 83.333 C 171.555 83.333,171.860 83.408,171.917 83.500 C 171.973 83.592,172.721 83.667,173.583 83.667 C 174.446 83.667,175.193 83.592,175.250 83.500 C 175.307 83.408,175.817 83.331,176.385 83.328 C 178.082 83.319,178.000 83.568,178.000 78.440 L 178.000 74.000 177.347 74.000 C 176.516 74.000,175.687 73.537,175.556 73.000 C 175.500 72.771,175.390 72.501,175.311 72.400 C 175.232 72.300,175.149 64.125,175.126 54.234 L 175.083 36.250 170.103 36.206 C 166.613 36.175,165.056 36.217,164.899 36.348 C 164.714 36.502,164.666 39.147,164.629 51.274 C 164.598 61.351,164.528 66.050,164.408 66.131 C 164.312 66.197,164.103 66.512,163.945 66.833 C 163.607 67.518,163.290 68.050,163.150 68.167 C 163.095 68.212,162.840 68.585,162.584 68.993 C 162.064 69.824,160.763 71.162,159.750 71.908 C 159.383 72.178,159.046 72.441,159.000 72.491 C 158.888 72.615,158.309 72.976,158.000 73.114 C 157.862 73.175,157.712 73.273,157.667 73.331 C 157.621 73.390,157.058 73.655,156.417 73.921 C 155.775 74.188,155.199 74.480,155.136 74.570 C 154.955 74.830,148.462 74.803,148.375 74.542 C 148.337 74.427,148.199 74.333,148.069 74.333 C 147.940 74.333,147.833 74.258,147.833 74.167 C 147.833 74.075,147.710 74.000,147.560 74.000 C 147.321 74.000,147.110 73.834,146.155 72.894 C 145.518 72.265,145.191 71.798,144.708 70.823 C 144.410 70.222,144.167 69.608,144.167 69.458 C 144.167 69.309,144.092 69.140,144.000 69.083 C 143.908 69.027,143.833 68.804,143.833 68.587 C 143.833 68.371,143.765 68.169,143.681 68.139 C 143.276 67.991,143.119 63.748,143.020 50.250 L 142.917 36.250 137.986 36.206 C 133.364 36.165,133.039 36.181,132.776 36.471 M187.006 36.489 C 186.889 36.707,186.833 44.280,186.833 59.827 L 186.833 82.842 187.261 83.004 C 187.847 83.227,196.760 83.218,197.178 82.994 C 197.577 82.780,197.698 36.765,197.300 36.367 C 196.910 35.977,187.218 36.092,187.006 36.489 M39.605 42.667 C 38.517 43.115,37.392 43.591,37.105 43.726 C 36.818 43.861,36.058 44.208,35.417 44.498 C 30.941 46.519,26.731 49.013,23.452 51.586 C 21.821 52.865,21.808 52.908,22.783 53.844 C 23.924 54.941,24.231 55.070,25.760 55.090 C 26.498 55.099,27.211 55.177,27.343 55.261 C 28.795 56.192,30.333 55.612,30.333 54.133 C 30.333 53.877,30.400 53.667,30.481 53.667 C 30.562 53.667,30.682 53.310,30.747 52.875 C 30.813 52.440,30.915 52.046,30.975 52.000 C 31.035 51.954,31.378 51.317,31.739 50.583 C 32.099 49.850,32.455 49.225,32.530 49.194 C 32.605 49.164,32.667 49.035,32.667 48.907 C 32.667 48.609,35.580 45.668,36.292 45.248 C 36.590 45.072,36.833 44.869,36.833 44.797 C 36.833 44.725,36.946 44.667,37.083 44.667 C 37.221 44.667,37.333 44.600,37.333 44.519 C 37.333 44.437,37.596 44.321,37.917 44.261 C 38.237 44.201,38.500 44.080,38.500 43.992 C 38.500 43.905,38.688 43.833,38.917 43.833 C 39.146 43.833,39.333 43.768,39.333 43.688 C 39.333 43.608,39.648 43.492,40.033 43.431 C 40.418 43.369,40.812 43.257,40.908 43.182 C 41.005 43.107,41.290 42.997,41.542 42.936 C 41.915 42.847,42.000 42.734,42.000 42.330 C 42.000 41.691,41.965 41.696,39.605 42.667 M101.833 44.833 C 101.833 44.925,102.016 45.000,102.240 45.000 C 102.464 45.000,102.688 45.066,102.738 45.148 C 102.789 45.229,103.093 45.345,103.415 45.405 C 103.737 45.466,104.000 45.587,104.000 45.674 C 104.000 45.762,104.150 45.833,104.333 45.833 C 104.517 45.833,104.667 45.902,104.667 45.987 C 104.667 46.071,104.892 46.190,105.167 46.250 C 105.442 46.310,105.667 46.417,105.667 46.487 C 105.667 46.557,105.929 46.756,106.250 46.928 C 106.571 47.101,106.833 47.284,106.833 47.335 C 106.833 47.386,107.072 47.569,107.363 47.741 C 108.042 48.142,110.167 50.317,110.167 50.610 C 110.167 50.733,110.233 50.833,110.314 50.833 C 110.395 50.833,110.503 50.965,110.554 51.125 C 110.604 51.285,110.758 51.604,110.896 51.833 C 111.327 52.555,111.667 53.373,111.667 53.692 C 111.667 53.862,111.742 54.000,111.833 54.000 C 112.186 54.000,112.047 66.504,111.691 66.814 C 111.520 66.962,111.328 67.252,111.263 67.458 C 111.197 67.665,111.074 67.833,110.989 67.833 C 110.903 67.833,110.833 67.946,110.833 68.083 C 110.833 68.221,110.763 68.333,110.678 68.333 C 110.592 68.333,110.478 68.475,110.423 68.647 C 110.341 68.906,109.209 70.241,108.500 70.917 C 108.403 71.008,107.964 71.431,107.524 71.855 C 107.083 72.279,106.560 72.678,106.361 72.741 C 106.163 72.804,106.000 72.926,106.000 73.011 C 106.000 73.097,105.888 73.167,105.750 73.167 C 105.612 73.167,105.500 73.224,105.500 73.294 C 105.500 73.428,104.283 74.000,103.999 74.000 C 103.908 74.000,103.833 74.075,103.833 74.167 C 103.833 74.258,103.690 74.333,103.514 74.333 C 103.338 74.333,103.163 74.427,103.125 74.541 C 103.025 74.843,95.975 74.843,95.875 74.542 C 95.837 74.427,95.624 74.333,95.403 74.333 C 95.181 74.333,95.000 74.258,95.000 74.167 C 95.000 74.075,94.880 74.000,94.734 74.000 C 94.440 74.000,93.449 73.489,93.361 73.292 C 93.331 73.223,93.170 73.167,93.004 73.167 C 92.838 73.167,92.659 73.054,92.606 72.917 C 92.554 72.779,92.402 72.667,92.268 72.667 C 92.135 72.667,91.701 72.342,91.304 71.944 C 90.907 71.547,90.413 71.132,90.208 71.022 C 90.002 70.912,89.833 70.739,89.833 70.637 C 89.833 70.536,89.608 70.238,89.333 69.975 C 89.058 69.712,88.833 69.437,88.833 69.363 C 88.833 69.290,88.702 69.080,88.542 68.897 C 87.907 68.172,87.039 66.386,86.900 65.518 C 86.840 65.141,86.725 64.833,86.645 64.833 C 86.565 64.833,86.500 64.577,86.500 64.264 C 86.500 63.951,86.406 63.663,86.292 63.625 C 86.134 63.572,86.083 62.704,86.083 60.036 C 86.083 57.443,86.138 56.462,86.292 56.308 C 86.406 56.194,86.500 55.926,86.500 55.714 C 86.500 55.502,86.571 55.199,86.657 55.039 C 86.743 54.880,86.946 54.300,87.108 53.750 C 87.270 53.200,87.464 52.675,87.540 52.583 C 87.616 52.492,87.985 51.897,88.362 51.262 C 88.739 50.627,89.185 49.952,89.354 49.762 C 90.273 48.731,91.306 47.708,91.727 47.415 C 91.989 47.233,92.302 46.990,92.423 46.875 C 92.544 46.760,92.723 46.667,92.821 46.667 C 92.920 46.667,93.000 46.592,93.000 46.500 C 93.000 46.408,93.107 46.333,93.238 46.333 C 93.369 46.333,93.575 46.237,93.696 46.119 C 93.989 45.833,95.068 45.333,95.390 45.333 C 95.532 45.333,95.693 45.258,95.750 45.167 C 95.807 45.075,96.036 45.000,96.260 45.000 C 96.484 45.000,96.667 44.925,96.667 44.833 C 96.667 44.729,97.639 44.667,99.250 44.667 C 100.861 44.667,101.833 44.729,101.833 44.833 M233.667 44.833 C 233.667 44.925,233.850 45.000,234.073 45.000 C 234.297 45.000,234.521 45.066,234.572 45.148 C 234.622 45.229,234.926 45.345,235.248 45.405 C 235.570 45.466,235.833 45.587,235.833 45.674 C 235.833 45.762,235.983 45.833,236.167 45.833 C 236.350 45.833,236.500 45.902,236.500 45.987 C 236.500 46.071,236.725 46.190,237.000 46.250 C 237.275 46.310,237.500 46.417,237.500 46.487 C 237.500 46.557,237.762 46.756,238.083 46.928 C 238.404 47.101,238.667 47.284,238.667 47.335 C 238.667 47.386,238.904 47.568,239.194 47.740 C 239.815 48.107,241.167 49.479,241.167 49.743 C 241.167 49.844,241.317 50.035,241.500 50.167 C 241.683 50.299,241.833 50.498,241.833 50.608 C 241.833 50.719,241.956 50.932,242.106 51.082 C 242.435 51.411,243.500 53.456,243.500 53.758 C 243.500 53.876,243.574 53.997,243.664 54.028 C 243.853 54.092,244.162 55.370,244.282 56.583 C 244.327 57.042,244.432 57.488,244.515 57.575 C 244.599 57.662,244.667 58.603,244.667 59.667 C 244.667 60.730,244.599 61.671,244.515 61.758 C 244.432 61.845,244.328 62.292,244.283 62.750 C 244.182 63.791,243.847 65.199,243.649 65.408 C 243.567 65.495,243.500 65.702,243.500 65.867 C 243.500 66.032,243.442 66.167,243.370 66.167 C 243.299 66.167,243.095 66.542,242.917 67.000 C 242.739 67.458,242.544 67.833,242.483 67.833 C 242.422 67.833,242.325 67.965,242.267 68.125 C 242.159 68.422,242.001 68.695,241.418 69.583 C 240.925 70.336,238.598 72.613,238.190 72.743 C 237.994 72.805,237.833 72.926,237.833 73.011 C 237.833 73.097,237.721 73.167,237.583 73.167 C 237.446 73.167,237.333 73.242,237.333 73.333 C 237.333 73.425,237.183 73.500,237.000 73.500 C 236.817 73.500,236.667 73.569,236.667 73.653 C 236.667 73.738,236.443 73.856,236.169 73.916 C 235.895 73.976,235.628 74.095,235.575 74.179 C 235.523 74.264,235.341 74.333,235.171 74.333 C 235.000 74.333,234.830 74.427,234.792 74.542 C 234.739 74.699,233.930 74.750,231.500 74.750 C 229.070 74.750,228.261 74.699,228.208 74.542 C 228.170 74.427,227.958 74.333,227.736 74.333 C 227.515 74.333,227.333 74.275,227.333 74.203 C 227.333 74.132,226.958 73.928,226.500 73.750 C 226.042 73.572,225.667 73.380,225.667 73.323 C 225.667 73.266,225.388 73.076,225.047 72.901 C 224.706 72.726,224.266 72.433,224.068 72.250 C 223.870 72.067,223.496 71.767,223.235 71.583 C 222.437 71.022,220.883 69.420,220.760 69.033 C 220.696 68.831,220.574 68.667,220.489 68.667 C 220.403 68.667,220.333 68.554,220.333 68.417 C 220.333 68.279,220.275 68.167,220.205 68.167 C 220.134 68.167,219.934 67.904,219.762 67.583 C 219.589 67.262,219.384 67.000,219.307 67.000 C 219.230 67.000,219.167 66.887,219.167 66.750 C 219.167 66.612,219.100 66.500,219.019 66.500 C 218.937 66.500,218.821 66.237,218.761 65.917 C 218.701 65.596,218.580 65.333,218.492 65.333 C 218.394 65.333,218.333 63.002,218.333 59.250 C 218.333 55.900,218.399 53.167,218.479 53.167 C 218.559 53.167,218.675 52.850,218.737 52.463 C 218.798 52.076,218.902 51.720,218.967 51.672 C 219.137 51.545,220.000 50.372,220.000 50.269 C 220.000 50.221,220.169 49.995,220.375 49.767 C 220.581 49.539,220.907 49.179,221.099 48.968 C 221.505 48.520,222.629 47.614,222.898 47.517 C 223.000 47.480,223.121 47.403,223.167 47.345 C 223.334 47.132,224.952 46.167,225.140 46.167 C 225.246 46.167,225.333 46.092,225.333 46.000 C 225.333 45.908,225.483 45.833,225.667 45.833 C 225.850 45.833,226.000 45.759,226.000 45.669 C 226.000 45.578,226.300 45.456,226.667 45.397 C 227.033 45.339,227.333 45.225,227.333 45.145 C 227.333 45.065,227.554 45.000,227.823 45.000 C 228.093 45.000,228.360 44.925,228.417 44.833 C 228.478 44.734,229.557 44.667,231.093 44.667 C 232.698 44.667,233.667 44.729,233.667 44.833 M284.167 44.833 C 284.167 44.925,284.288 45.000,284.436 45.000 C 284.834 45.000,286.333 45.558,286.333 45.706 C 286.333 45.776,286.483 45.833,286.667 45.833 C 286.850 45.833,287.000 45.900,287.000 45.982 C 287.000 46.064,287.205 46.182,287.455 46.245 C 288.396 46.481,292.000 49.504,292.000 50.057 C 292.000 50.141,292.139 50.332,292.309 50.480 C 292.480 50.629,292.672 50.919,292.737 51.125 C 292.803 51.331,292.926 51.500,293.011 51.500 C 293.097 51.500,293.167 51.612,293.167 51.750 C 293.167 51.887,293.233 52.000,293.315 52.000 C 293.396 52.000,293.512 52.262,293.572 52.583 C 293.633 52.904,293.753 53.167,293.841 53.167 C 293.928 53.167,294.000 53.271,294.000 53.398 C 294.000 53.525,294.112 53.843,294.249 54.106 C 294.386 54.369,294.498 54.752,294.499 54.958 C 294.500 55.165,294.575 55.333,294.667 55.333 C 294.758 55.333,294.833 55.596,294.833 55.917 C 294.833 56.237,294.908 56.500,295.000 56.500 C 295.105 56.500,295.167 57.667,295.167 59.667 C 295.167 61.667,295.105 62.833,295.000 62.833 C 294.908 62.833,294.833 62.992,294.833 63.186 C 294.833 63.789,294.003 66.167,293.793 66.167 C 293.723 66.167,293.667 66.337,293.667 66.545 C 293.667 66.753,293.490 67.184,293.275 67.503 C 293.060 67.822,292.751 68.365,292.590 68.708 C 292.428 69.052,292.229 69.333,292.148 69.333 C 292.066 69.333,292.000 69.418,292.000 69.523 C 292.000 69.627,291.813 69.886,291.583 70.098 C 291.354 70.310,291.167 70.554,291.167 70.640 C 291.167 70.725,290.998 70.910,290.792 71.050 C 290.585 71.191,290.112 71.599,289.740 71.956 C 289.367 72.314,288.955 72.657,288.823 72.719 C 288.511 72.865,287.940 73.225,287.833 73.342 C 287.699 73.490,286.550 74.000,286.350 74.000 C 286.249 74.000,286.167 74.075,286.167 74.167 C 286.167 74.258,286.023 74.333,285.847 74.333 C 285.672 74.333,285.497 74.424,285.460 74.535 C 285.269 75.108,278.167 74.710,278.167 74.126 C 278.167 74.057,278.013 74.000,277.824 74.000 C 277.519 74.000,275.569 72.950,275.049 72.505 C 274.938 72.411,274.802 72.333,274.746 72.333 C 274.690 72.333,274.368 72.071,274.031 71.751 C 273.693 71.431,273.367 71.169,273.307 71.168 C 273.167 71.166,271.667 69.712,271.667 69.578 C 271.667 69.441,270.781 68.264,270.625 68.194 C 270.556 68.164,270.500 68.036,270.500 67.910 C 270.500 67.785,270.311 67.493,270.080 67.262 C 269.849 67.031,269.615 66.615,269.559 66.338 C 269.504 66.060,269.393 65.833,269.313 65.833 C 269.115 65.833,269.124 52.743,269.321 52.373 C 269.406 52.214,269.518 51.971,269.570 51.833 C 269.723 51.428,270.068 50.927,270.292 50.783 C 270.406 50.710,270.500 50.509,270.500 50.336 C 270.500 50.164,270.650 49.975,270.833 49.917 C 271.017 49.858,271.167 49.745,271.167 49.665 C 271.167 49.502,272.819 47.833,272.981 47.833 C 273.037 47.833,273.301 47.646,273.568 47.416 C 273.834 47.187,274.153 47.000,274.276 47.000 C 274.399 47.000,274.500 46.925,274.500 46.833 C 274.500 46.742,274.612 46.667,274.750 46.667 C 274.887 46.667,275.000 46.603,275.000 46.525 C 275.000 46.447,275.337 46.244,275.750 46.074 C 276.162 45.904,276.500 45.715,276.500 45.654 C 276.500 45.593,276.800 45.495,277.167 45.436 C 277.533 45.377,277.833 45.255,277.833 45.165 C 277.833 45.074,278.096 45.000,278.417 45.000 C 278.737 45.000,279.000 44.925,279.000 44.833 C 279.000 44.729,279.972 44.667,281.583 44.667 C 283.194 44.667,284.167 44.729,284.167 44.833 M366.333 44.833 C 366.333 44.925,366.512 45.000,366.731 45.000 C 366.950 45.000,367.343 45.112,367.606 45.249 C 367.869 45.386,368.252 45.498,368.458 45.499 C 368.665 45.500,368.833 45.563,368.833 45.640 C 368.833 45.718,369.113 45.924,369.456 46.099 C 369.798 46.274,370.178 46.510,370.301 46.625 C 370.424 46.740,370.575 46.834,370.637 46.834 C 370.699 46.834,371.012 47.059,371.333 47.333 C 371.654 47.608,371.970 47.833,372.034 47.833 C 372.188 47.833,373.000 48.647,373.000 48.801 C 373.000 48.867,373.261 49.219,373.580 49.585 C 373.899 49.951,374.162 50.337,374.163 50.444 C 374.165 50.551,374.223 50.664,374.292 50.694 C 374.360 50.725,374.641 51.200,374.916 51.750 C 375.190 52.300,375.465 52.788,375.525 52.834 C 375.586 52.880,375.689 53.199,375.754 53.544 C 375.818 53.888,375.938 54.211,376.019 54.262 C 376.100 54.312,376.167 54.499,376.167 54.677 C 376.167 54.854,376.237 55.000,376.323 55.000 C 376.409 55.000,376.532 55.525,376.595 56.167 C 376.658 56.808,376.775 57.333,376.855 57.333 C 377.046 57.333,377.044 62.120,376.853 62.238 C 376.772 62.288,376.654 62.817,376.590 63.414 C 376.526 64.011,376.404 64.500,376.320 64.500 C 376.236 64.500,376.167 64.688,376.167 64.917 C 376.167 65.146,376.101 65.333,376.021 65.333 C 375.941 65.333,375.828 65.633,375.769 66.000 C 375.711 66.367,375.589 66.667,375.498 66.667 C 375.407 66.667,375.333 66.817,375.333 67.000 C 375.333 67.183,375.275 67.333,375.203 67.333 C 375.132 67.333,374.928 67.708,374.750 68.167 C 374.572 68.625,374.380 69.000,374.323 69.000 C 374.266 69.000,374.078 69.263,373.904 69.584 C 373.731 69.906,373.457 70.211,373.295 70.262 C 373.133 70.314,373.000 70.418,373.000 70.494 C 373.000 70.616,372.554 71.075,371.282 72.258 C 371.081 72.446,370.803 72.652,370.666 72.715 C 370.348 72.863,369.775 73.222,369.667 73.342 C 369.532 73.490,368.383 74.000,368.183 74.000 C 368.082 74.000,368.000 74.075,368.000 74.167 C 368.000 74.258,367.819 74.333,367.597 74.333 C 367.376 74.333,367.163 74.427,367.125 74.542 C 367.072 74.699,366.213 74.750,363.583 74.750 C 360.954 74.750,360.094 74.699,360.042 74.542 C 360.003 74.427,359.880 74.333,359.767 74.333 C 359.655 74.333,359.174 74.146,358.699 73.917 C 358.224 73.688,357.760 73.500,357.667 73.500 C 357.575 73.500,357.500 73.441,357.500 73.369 C 357.500 73.297,357.262 73.098,356.971 72.926 C 356.275 72.515,355.467 71.858,354.457 70.883 C 353.906 70.350,352.500 68.320,352.500 68.056 C 352.500 67.934,352.425 67.833,352.333 67.833 C 352.242 67.833,352.167 67.721,352.167 67.583 C 352.167 67.446,352.092 67.333,352.000 67.333 C 351.908 67.333,351.831 67.202,351.828 67.042 C 351.825 66.881,351.713 66.604,351.578 66.426 C 351.443 66.249,351.333 65.934,351.333 65.728 C 351.333 65.522,351.258 65.307,351.167 65.250 C 351.075 65.193,351.000 64.941,351.000 64.690 C 351.000 64.439,350.906 64.140,350.792 64.025 C 350.637 63.870,350.583 62.814,350.583 59.917 C 350.583 57.019,350.637 55.963,350.792 55.808 C 350.906 55.694,351.000 55.394,351.000 55.143 C 351.000 54.892,351.075 54.640,351.167 54.583 C 351.258 54.527,351.333 54.312,351.333 54.105 C 351.333 53.899,351.443 53.585,351.578 53.407 C 351.713 53.229,351.825 52.915,351.828 52.708 C 351.831 52.502,351.902 52.333,351.985 52.333 C 352.069 52.333,352.296 52.006,352.489 51.605 C 352.683 51.205,352.990 50.743,353.171 50.580 C 353.352 50.416,353.500 50.208,353.500 50.119 C 353.500 50.029,353.633 49.834,353.796 49.686 C 353.959 49.538,354.233 49.192,354.405 48.917 C 354.578 48.642,354.865 48.304,355.044 48.167 C 355.223 48.029,355.615 47.710,355.915 47.458 C 356.215 47.206,356.544 47.000,356.646 47.000 C 356.747 47.000,356.924 46.850,357.039 46.667 C 357.153 46.483,357.361 46.333,357.501 46.333 C 357.641 46.333,358.017 46.156,358.336 45.939 C 358.656 45.722,359.160 45.491,359.458 45.426 C 359.756 45.360,360.000 45.238,360.000 45.153 C 360.000 45.069,360.188 45.000,360.417 45.000 C 360.646 45.000,360.833 44.925,360.833 44.833 C 360.833 44.729,361.861 44.667,363.583 44.667 C 365.306 44.667,366.333 44.729,366.333 44.833 M26.789 57.608 C 25.994 58.943,26.601 59.855,28.313 59.892 L 29.417 59.917 29.518 59.083 C 29.641 58.069,29.529 57.906,28.623 57.779 C 28.235 57.724,27.682 57.632,27.395 57.573 C 27.108 57.514,26.836 57.530,26.789 57.608 " stroke="none" fill="#040404" fill-rule="evenodd"></path><path id="path2" d="M52.833 37.417 C 52.421 37.638,52.158 37.818,52.250 37.818 C 52.342 37.818,52.754 37.638,53.167 37.417 C 53.579 37.196,53.842 37.015,53.750 37.015 C 53.658 37.015,53.246 37.196,52.833 37.417 M50.500 38.417 C 50.271 38.548,50.158 38.655,50.250 38.655 C 50.342 38.655,50.604 38.548,50.833 38.417 C 51.063 38.286,51.175 38.178,51.083 38.178 C 50.992 38.178,50.729 38.286,50.500 38.417 M48.417 39.256 C 48.000 39.457,47.986 39.480,48.333 39.395 C 48.806 39.279,49.336 39.009,49.083 39.013 C 48.992 39.014,48.692 39.123,48.417 39.256 M44.686 41.625 C 44.675 42.106,44.727 42.500,44.800 42.500 C 44.873 42.500,44.906 42.219,44.874 41.875 C 44.772 40.803,44.706 40.716,44.686 41.625 M40.750 42.089 C 40.333 42.290,40.319 42.313,40.667 42.228 C 41.139 42.113,41.670 41.842,41.417 41.846 C 41.325 41.847,41.025 41.957,40.750 42.089 M38.667 42.917 C 38.438 43.048,38.325 43.155,38.417 43.155 C 38.508 43.155,38.771 43.048,39.000 42.917 C 39.229 42.786,39.342 42.678,39.250 42.678 C 39.158 42.678,38.896 42.786,38.667 42.917 M36.417 43.906 C 35.958 44.126,35.630 44.313,35.687 44.320 C 35.840 44.340,37.333 43.664,37.333 43.576 C 37.333 43.465,37.325 43.468,36.417 43.906 M32.833 45.583 C 32.421 45.804,32.143 45.988,32.215 45.992 C 32.392 46.003,33.667 45.348,33.667 45.247 C 33.667 45.136,33.674 45.133,32.833 45.583 M31.458 46.262 C 30.835 46.600,30.873 46.741,31.500 46.417 C 31.775 46.274,32.000 46.123,32.000 46.079 C 32.000 45.972,31.982 45.978,31.458 46.262 M29.958 47.095 C 29.335 47.433,29.373 47.574,30.000 47.250 C 30.275 47.108,30.500 46.956,30.500 46.912 C 30.500 46.805,30.482 46.811,29.958 47.095 M27.042 48.853 C 26.474 49.216,26.290 49.461,26.792 49.185 C 27.174 48.975,27.773 48.511,27.667 48.508 C 27.621 48.507,27.340 48.662,27.042 48.853 M25.542 49.850 C 25.152 50.126,24.833 50.389,24.833 50.434 C 24.833 50.479,25.171 50.284,25.583 50.000 C 25.996 49.716,26.333 49.450,26.333 49.409 C 26.333 49.294,26.302 49.312,25.542 49.850 M23.917 51.102 L 23.250 51.698 23.958 51.168 C 24.568 50.712,24.788 50.493,24.625 50.502 C 24.602 50.504,24.283 50.773,23.917 51.102 M21.888 52.765 C 21.820 52.942,22.029 53.262,22.515 53.724 L 23.244 54.417 22.616 53.737 C 22.196 53.282,22.024 52.965,22.095 52.779 C 22.154 52.625,22.154 52.500,22.096 52.500 C 22.037 52.500,21.944 52.619,21.888 52.765 M19.660 54.941 C 19.440 55.220,19.443 55.230,19.689 55.037 C 19.923 54.855,20.011 54.902,20.311 55.371 C 20.504 55.671,20.662 55.842,20.663 55.750 C 20.669 55.243,19.906 54.628,19.660 54.941 M19.131 55.625 C 18.761 56.049,18.458 56.680,18.570 56.792 C 18.623 56.845,18.667 56.812,18.667 56.718 C 18.667 56.624,18.852 56.274,19.078 55.940 C 19.520 55.289,19.543 55.153,19.131 55.625 M20.833 56.052 C 20.833 56.081,21.077 56.325,21.375 56.594 L 21.917 57.083 21.427 56.542 C 20.971 56.037,20.833 55.923,20.833 56.052 M39.583 57.608 C 39.081 58.057,39.044 58.119,39.431 57.860 C 39.892 57.552,40.472 56.990,40.312 57.006 C 40.278 57.010,39.950 57.281,39.583 57.608 M26.675 57.573 C 26.566 57.705,26.508 58.024,26.546 58.282 C 26.613 58.726,26.618 58.722,26.642 58.203 C 26.660 57.805,26.769 57.615,27.042 57.505 C 27.295 57.403,27.329 57.351,27.145 57.344 C 26.996 57.338,26.785 57.441,26.675 57.573 M27.917 57.667 C 28.192 57.737,28.604 57.794,28.833 57.794 C 29.205 57.794,29.196 57.780,28.750 57.667 C 28.475 57.597,28.063 57.539,27.833 57.539 C 27.462 57.539,27.471 57.553,27.917 57.667 M23.167 58.028 C 23.584 58.435,23.796 58.510,23.591 58.179 C 23.531 58.081,23.317 57.916,23.116 57.812 C 22.784 57.640,22.789 57.660,23.167 58.028 M29.542 59.083 C 29.544 59.450,29.578 59.580,29.618 59.373 C 29.658 59.166,29.656 58.866,29.615 58.706 C 29.573 58.547,29.540 58.717,29.542 59.083 M23.550 59.500 C 23.550 60.004,23.581 60.210,23.619 59.958 C 23.658 59.706,23.658 59.294,23.619 59.042 C 23.581 58.790,23.550 58.996,23.550 59.500 M26.353 59.116 C 26.329 59.560,26.918 60.006,27.495 59.983 C 27.852 59.968,27.831 59.946,27.360 59.834 C 26.724 59.684,26.565 59.553,26.452 59.083 C 26.378 58.775,26.371 58.778,26.353 59.116 M35.250 59.667 C 35.040 59.757,35.009 59.810,35.167 59.810 C 35.304 59.810,35.567 59.745,35.750 59.667 C 35.960 59.576,35.991 59.523,35.833 59.523 C 35.696 59.523,35.433 59.588,35.250 59.667 M28.750 60.000 L 28.083 60.119 28.792 60.143 C 29.181 60.156,29.500 60.092,29.500 60.000 C 29.500 59.908,29.481 59.844,29.458 59.857 C 29.435 59.870,29.117 59.934,28.750 60.000 M33.417 60.000 L 32.583 60.114 33.333 60.138 C 33.746 60.151,34.196 60.089,34.333 60.000 C 34.471 59.911,34.508 59.849,34.417 59.862 C 34.325 59.875,33.875 59.937,33.417 60.000 M28.583 62.510 C 28.950 62.585,29.438 62.643,29.667 62.638 C 29.934 62.632,29.844 62.579,29.417 62.490 C 29.050 62.415,28.563 62.357,28.333 62.362 C 28.066 62.368,28.156 62.421,28.583 62.510 " stroke="none" fill="#4e3a0c" fill-rule="evenodd"></path><path id="path3" d="" stroke="none" fill="#785c14" fill-rule="evenodd"></path><path id="path4" d="M52.750 37.247 C 52.108 37.554,51.658 37.807,51.750 37.808 C 51.842 37.810,52.442 37.560,53.083 37.253 C 53.725 36.946,54.175 36.693,54.083 36.692 C 53.992 36.690,53.392 36.940,52.750 37.247 M48.083 39.179 C 47.717 39.355,47.599 39.452,47.823 39.395 C 48.433 39.239,49.286 38.846,49.000 38.852 C 48.862 38.855,48.450 39.002,48.083 39.179 M46.708 39.672 C 46.150 39.896,46.255 40.010,46.833 39.808 C 47.108 39.712,47.333 39.604,47.333 39.567 C 47.333 39.468,47.130 39.502,46.708 39.672 M45.250 40.256 C 44.833 40.457,44.819 40.480,45.167 40.395 C 45.639 40.279,46.170 40.009,45.917 40.013 C 45.825 40.014,45.525 40.123,45.250 40.256 M44.333 40.667 C 44.182 40.765,44.162 40.829,44.283 40.831 C 44.399 40.832,44.510 41.162,44.549 41.625 C 44.611 42.353,44.616 42.339,44.613 41.458 C 44.611 40.931,44.604 40.501,44.596 40.503 C 44.589 40.504,44.471 40.578,44.333 40.667 M40.363 42.025 C 39.876 42.212,39.505 42.394,39.540 42.429 C 39.602 42.491,41.352 41.868,41.486 41.735 C 41.633 41.590,41.215 41.698,40.363 42.025 M37.917 43.089 C 37.498 43.291,37.484 43.314,37.833 43.230 C 38.063 43.174,38.321 43.063,38.408 42.981 C 38.624 42.779,38.506 42.805,37.917 43.089 M36.500 43.667 C 36.179 43.842,35.992 43.986,36.083 43.986 C 36.175 43.986,36.512 43.842,36.833 43.667 C 37.154 43.491,37.342 43.347,37.250 43.347 C 37.158 43.347,36.821 43.491,36.500 43.667 M34.000 44.833 C 33.679 45.009,33.492 45.153,33.583 45.153 C 33.675 45.153,34.012 45.009,34.333 44.833 C 34.654 44.658,34.842 44.514,34.750 44.514 C 34.658 44.514,34.321 44.658,34.000 44.833 M31.625 46.011 C 31.281 46.193,31.000 46.379,31.000 46.424 C 31.000 46.470,31.300 46.354,31.667 46.167 C 32.033 45.980,32.333 45.791,32.333 45.747 C 32.333 45.638,32.332 45.638,31.625 46.011 M28.042 48.019 C 27.474 48.383,27.290 48.627,27.792 48.351 C 28.174 48.141,28.773 47.678,28.667 47.675 C 28.621 47.673,28.340 47.828,28.042 48.019 M25.328 49.837 C 22.989 51.512,22.521 51.881,22.509 52.059 C 22.504 52.137,22.756 51.976,23.069 51.702 C 23.382 51.427,24.413 50.658,25.361 49.993 C 27.188 48.711,27.461 48.500,27.298 48.500 C 27.242 48.500,26.356 49.102,25.328 49.837 M22.834 54.224 C 23.063 54.484,23.400 54.775,23.583 54.869 C 23.934 55.050,23.924 55.039,23.001 54.249 L 22.418 53.750 22.834 54.224 M19.487 54.958 L 19.083 55.417 19.529 55.024 C 19.792 54.793,20.060 54.684,20.180 54.758 C 20.311 54.839,20.342 54.816,20.266 54.692 C 20.087 54.402,19.931 54.455,19.487 54.958 M32.391 56.757 C 32.241 57.148,32.403 57.194,32.633 56.826 C 32.761 56.620,32.773 56.500,32.663 56.500 C 32.568 56.500,32.445 56.616,32.391 56.757 M39.660 57.345 L 39.083 57.857 39.708 57.409 C 40.261 57.013,40.440 56.833,40.285 56.833 C 40.259 56.833,39.978 57.064,39.660 57.345 M28.931 57.657 C 29.214 57.725,29.552 57.835,29.681 57.902 C 29.811 57.970,29.771 57.907,29.593 57.762 C 29.415 57.618,29.078 57.508,28.843 57.517 C 28.451 57.533,28.458 57.544,28.931 57.657 M23.458 58.000 C 23.584 58.140,23.667 58.707,23.667 59.424 C 23.667 60.454,23.717 60.658,24.042 60.933 C 24.416 61.250,24.416 61.250,24.125 60.904 C 23.908 60.645,23.833 60.258,23.833 59.382 C 23.833 58.459,23.771 58.160,23.542 57.987 C 23.294 57.799,23.281 57.801,23.458 58.000 M26.167 59.240 C 26.167 59.464,26.228 59.685,26.303 59.731 C 26.378 59.778,26.407 59.595,26.368 59.325 C 26.280 58.729,26.167 58.681,26.167 59.240 M27.208 60.115 C 27.369 60.157,27.631 60.157,27.792 60.115 C 27.952 60.073,27.821 60.039,27.500 60.039 C 27.179 60.039,27.048 60.073,27.208 60.115 M25.583 61.667 C 25.767 61.745,26.029 61.810,26.167 61.810 C 26.324 61.810,26.293 61.757,26.083 61.667 C 25.900 61.588,25.637 61.523,25.500 61.523 C 25.342 61.523,25.373 61.576,25.583 61.667 M27.667 62.167 C 27.896 62.240,28.233 62.300,28.417 62.300 C 28.681 62.300,28.663 62.272,28.333 62.167 C 28.104 62.093,27.767 62.033,27.583 62.033 C 27.319 62.033,27.337 62.061,27.667 62.167 M29.711 62.453 C 29.964 62.491,30.339 62.490,30.544 62.451 C 30.749 62.411,30.542 62.380,30.083 62.381 C 29.625 62.382,29.457 62.415,29.711 62.453 " stroke="none" fill="#845c14" fill-rule="evenodd"></path></g></svg>