<svg width="25" height="21" viewBox="0 0 25 21" fill="none" xmlns="http://www.w3.org/2000/svg">
<path d="M20.2575 5.93272C19.5192 4.23622 18.245 2.8286 16.6302 1.92556C15.0154 1.02251 13.149 0.67385 11.317 0.933009C9.48508 1.19217 7.78864 2.04485 6.48766 3.36039C5.18668 4.67593 4.35294 6.38175 4.11419 8.21647C2.96214 8.49236 1.95154 9.18173 1.27429 10.1537C0.597035 11.1256 0.300305 12.3124 0.440447 13.4887C0.580589 14.665 1.14784 15.7489 2.03448 16.5345C2.92113 17.3201 4.06541 17.7527 5.25002 17.7502C5.57049 17.7502 5.87783 17.6229 6.10444 17.3963C6.33105 17.1697 6.45835 16.8624 6.45835 16.5419C6.45835 16.2214 6.33105 15.9141 6.10444 15.6875C5.87783 15.4609 5.57049 15.3336 5.25002 15.3336C4.60908 15.3336 3.99439 15.0789 3.54118 14.6257C3.08797 14.1725 2.83335 13.5578 2.83335 12.9169C2.83335 12.2759 3.08797 11.6613 3.54118 11.208C3.99439 10.7548 4.60908 10.5002 5.25002 10.5002C5.57049 10.5002 5.87783 10.3729 6.10444 10.1463C6.33105 9.9197 6.45835 9.61236 6.45835 9.29189C6.46144 7.86276 6.97103 6.481 7.8966 5.39209C8.82216 4.30318 10.1038 3.57762 11.5137 3.34432C12.9237 3.11101 14.3707 3.38508 15.5977 4.11781C16.8247 4.85055 17.7522 5.99451 18.2154 7.34647C18.2845 7.55411 18.4087 7.73909 18.5747 7.88168C18.7407 8.02427 18.9423 8.1191 19.1579 8.15605C19.9628 8.30815 20.6924 8.72832 21.2278 9.34811C21.7633 9.96791 22.0731 10.7508 22.1068 11.5692C22.1404 12.3875 21.8959 13.1932 21.413 13.8548C20.9302 14.5165 20.2376 14.9951 19.4479 15.2127C19.1371 15.2928 18.8708 15.4932 18.7076 15.7696C18.5445 16.0461 18.4978 16.376 18.5779 16.6869C18.6581 16.9977 18.8584 17.264 19.1348 17.4272C19.4113 17.5904 19.7412 17.637 20.0521 17.5569C21.3237 17.2209 22.451 16.479 23.2627 15.4441C24.0743 14.4091 24.5261 13.1375 24.5493 11.8225C24.5726 10.5074 24.166 9.22065 23.3914 8.15765C22.6168 7.09465 21.5165 6.31346 20.2575 5.93272ZM13.3579 8.43397C13.243 8.32396 13.1075 8.23773 12.9592 8.18022C12.665 8.05936 12.335 8.05936 12.0409 8.18022C11.8925 8.23773 11.757 8.32396 11.6421 8.43397L8.0171 12.059C7.78957 12.2865 7.66174 12.5951 7.66174 12.9169C7.66174 13.2387 7.78957 13.5473 8.0171 13.7748C8.24464 14.0023 8.55324 14.1302 8.87502 14.1302C9.1968 14.1302 9.5054 14.0023 9.73294 13.7748L11.2917 12.204V18.9586C11.2917 19.279 11.419 19.5864 11.6456 19.813C11.8722 20.0396 12.1795 20.1669 12.5 20.1669C12.8205 20.1669 13.1278 20.0396 13.3544 19.813C13.581 19.5864 13.7084 19.279 13.7084 18.9586V12.204L15.2671 13.7748C15.3794 13.8881 15.5131 13.9779 15.6603 14.0393C15.8076 14.1006 15.9655 14.1322 16.125 14.1322C16.2845 14.1322 16.4425 14.1006 16.5897 14.0393C16.737 13.9779 16.8706 13.8881 16.9829 13.7748C17.0962 13.6625 17.1861 13.5288 17.2474 13.3816C17.3088 13.2343 17.3404 13.0764 17.3404 12.9169C17.3404 12.7574 17.3088 12.5994 17.2474 12.4522C17.1861 12.3049 17.0962 12.1713 16.9829 12.059L13.3579 8.43397Z" fill="#E0A800"/>
</svg>
